 <svg  version="1.0" xmlns="http://www.w3.org/2000/svg"  width="300.000000pt" height="300.000000pt" viewBox="0 0 300.000000 300.000000"  preserveAspectRatio="xMidYMid meet">  <g transform="translate(0.000000,300.000000) scale(0.100000,-0.100000)" fill="#000000" stroke="none"> <path d="M442 2357 c-30 -32 -28 -71 4 -96 25 -19 40 -21 188 -21 130 0 166 3 184 16 29 20 30 76 2 104 -18 18 -33 20 -188 20 -163 0 -169 -1 -190 -23z"/> <path d="M2145 2355 c-33 -32 -32 -68 1 -94 25 -19 40 -21 194 -21 145 0 171 2 188 18 35 29 38 67 8 96 -25 26 -26 26 -196 26 -168 0 -171 0 -195 -25z"/> <path d="M561 2084 c-27 -34 -26 -50 4 -79 l24 -25 841 0 840 0 0 -70 c0 -38 5 -80 11 -93 23 -52 89 -54 123 -5 12 17 16 48 16 140 0 105 -2 120 -20 138 -20 20 -33 20 -919 20 l-900 0 -20 -26z"/> <path d="M1175 1909 c-45 -26 -45 -25 -45 -412 0 -217 4 -376 10 -386 5 -10 22 -24 38 -30 40 -17 64 -6 247 114 83 54 195 127 250 163 130 84 145 98 145 137 0 20 -8 39 -22 52 -13 11 -139 98 -281 193 -259 172 -300 193 -342 169z m286 -303 c163 -109 170 -115 148 -127 -13 -7 -91 -57 -173 -111 -83 -54 -153 -98 -156 -98 -3 0 -4 101 -2 225 1 124 5 225 7 225 3 0 82 -51 176 -114z"/> <path d="M871 1744 c-20 -25 -21 -39 -21 -241 0 -214 0 -214 25 -238 46 -46 102 -26 114 41 3 21 6 126 5 232 -1 170 -3 195 -19 212 -27 30 -78 26 -104 -6z"/> <path d="M1958 1759 c-10 -5 -22 -26 -28 -47 -14 -51 -13 -394 1 -425 16 -35 53 -53 87 -41 47 16 52 41 52 265 0 194 -1 208 -21 233 -22 27 -59 34 -91 15z"/> <path d="M2299 1221 c-21 -17 -24 -29 -27 -120 l-4 -101 -843 0 -844 0 -20 -26 c-27 -34 -26 -47 3 -81 l24 -28 892 0 892 0 24 28 c23 27 24 35 24 163 0 130 -1 136 -25 159 -29 30 -64 32 -96 6z"/> <path d="M2190 742 c-31 -5 -70 -39 -70 -63 0 -66 36 -79 220 -79 185 0 210 9 210 76 0 56 -19 63 -185 66 -83 2 -161 1 -175 0z"/> <path d="M440 718 c-31 -34 -26 -74 13 -98 28 -18 50 -20 180 -20 182 0 207 9 207 77 0 57 -22 63 -212 63 -159 0 -168 -1 -188 -22z"/> </g> </svg> 