<?xml version="1.0" standalone="no"?>
<!DOCTYPE svg PUBLIC "-//W3C//DTD SVG 20010904//EN"
 "http://www.w3.org/TR/2001/REC-SVG-20010904/DTD/svg10.dtd">
<svg version="1.0" xmlns="http://www.w3.org/2000/svg"
 width="300.000000pt" height="300.000000pt" viewBox="0 0 300.000000 300.000000"
 preserveAspectRatio="xMidYMid meet">
<metadata>
Created by potrace 1.10, written by Peter Selinger 2001-2011
</metadata>
<g transform="translate(0.000000,300.000000) scale(0.100000,-0.100000)"
fill="#000000" stroke="none">
<path d="M1930 2520 c-22 -22 -26 -60 -8 -78 9 -9 77 -12 243 -12 166 0 234
-3 243 -12 9 -9 12 -86 12 -283 0 -251 1 -273 18 -288 22 -20 63 -22 80 -5 9
9 12 92 12 313 0 280 -1 302 -19 329 -35 53 -46 55 -313 56 -235 0 -249 -1
-268 -20z"/>
<path d="M469 2501 l-29 -29 0 -311 0 -311 25 -16 c27 -18 59 -12 72 14 4 9
10 141 13 292 l5 275 259 3 c171 1 264 6 273 13 18 15 16 64 -3 83 -13 14 -55
16 -300 16 l-286 0 -29 -29z"/>
<path d="M1335 2487 c-27 -27 -34 -43 -40 -93 -9 -89 -3 -82 -138 -146 -56
-26 -72 -30 -85 -20 -78 56 -127 67 -170 36 -31 -21 -128 -125 -178 -190 -37
-47 -32 -74 27 -154 9 -13 3 -34 -26 -102 -40 -91 -47 -98 -115 -98 -56 0
-111 -20 -142 -50 l-28 -28 0 -145 c0 -131 2 -147 21 -171 31 -39 70 -56 151
-64 l72 -7 37 -88 38 -88 -35 -45 c-58 -77 -49 -104 93 -251 61 -65 96 -93
113 -94 66 -4 83 2 116 36 18 19 41 35 52 35 23 0 174 -69 184 -84 4 -6 8 -31
8 -56 1 -61 31 -125 69 -144 41 -22 237 -22 287 -1 42 18 73 79 74 146 0 55
13 73 65 89 22 7 62 23 89 36 l50 23 43 -39 c38 -35 48 -40 92 -40 l49 0 97
103 c53 56 101 112 106 125 18 46 10 81 -26 121 l-36 39 32 74 c17 40 34 80
38 88 6 10 36 18 92 25 91 11 141 34 158 72 17 38 14 278 -4 313 -21 40 -63
60 -143 67 -69 6 -112 24 -112 47 0 7 -13 42 -29 77 l-29 64 31 33 c46 48 45
104 -2 158 -134 155 -170 184 -226 184 -37 0 -52 -6 -83 -34 l-37 -34 -86 36
c-47 21 -93 43 -101 50 -9 7 -19 38 -23 70 -8 67 -25 103 -61 131 -24 19 -40
21 -161 21 l-135 0 -33 -33z m249 -100 c12 -8 21 -38 29 -96 13 -93 8 -87 112
-121 39 -12 100 -40 137 -61 36 -22 77 -39 90 -39 14 0 38 14 58 35 19 19 41
35 51 35 16 0 119 -101 119 -118 0 -5 -13 -29 -30 -53 -16 -24 -30 -48 -30
-53 0 -5 15 -39 34 -75 19 -36 44 -100 56 -141 13 -41 27 -81 33 -87 6 -9 38
-13 94 -13 120 0 123 -3 123 -103 0 -45 -4 -88 -8 -95 -6 -9 -40 -14 -106 -16
-53 -1 -101 -7 -105 -12 -5 -5 -18 -43 -31 -84 -12 -41 -37 -105 -56 -142 -19
-37 -34 -76 -34 -86 0 -10 13 -36 30 -58 16 -21 29 -46 29 -54 0 -24 -92 -120
-115 -120 -11 0 -31 12 -45 26 -13 14 -36 32 -51 40 -26 13 -34 11 -130 -35
-57 -27 -124 -53 -150 -56 -26 -4 -52 -12 -57 -19 -5 -6 -15 -47 -21 -91 -7
-44 -17 -86 -23 -93 -14 -18 -141 -16 -160 3 -9 9 -18 45 -22 92 -8 87 -16
103 -52 103 -36 0 -135 36 -193 70 -82 48 -93 48 -140 1 -22 -23 -49 -41 -60
-41 -20 0 -120 97 -120 116 0 6 14 30 30 52 16 23 30 51 30 63 0 11 -15 46
-33 77 -37 65 -49 93 -72 175 -9 32 -21 60 -28 62 -7 2 -50 6 -97 9 -102 5
-110 13 -110 107 0 98 11 108 125 111 l90 3 30 90 c17 50 45 116 63 147 39 69
39 80 7 122 -14 18 -25 41 -25 52 0 20 97 124 115 124 6 0 26 -16 45 -35 19
-19 44 -35 56 -35 12 0 48 18 80 39 54 35 147 73 215 86 32 6 37 17 46 107 3
39 12 76 20 84 18 18 132 19 157 1z"/>
<path d="M1420 1936 c-76 -18 -96 -27 -166 -78 -68 -51 -126 -131 -156 -216
-16 -46 -19 -76 -16 -158 3 -92 7 -107 40 -176 88 -177 273 -279 451 -248 243
42 410 274 367 513 -16 91 -49 156 -113 224 -68 72 -150 120 -234 138 -81 17
-100 17 -173 1z m218 -155 c161 -83 224 -285 137 -437 -105 -181 -356 -208
-487 -52 -99 119 -104 274 -14 397 34 46 108 102 152 114 45 13 169 0 212 -22z"/>
<path d="M1377 1712 c-15 -16 -17 -46 -17 -216 0 -117 4 -205 10 -217 15 -27
40 -24 96 12 265 171 269 174 272 200 2 15 -4 31 -15 40 -39 33 -303 199 -316
199 -8 0 -21 -8 -30 -18z"/>
<path d="M442 1058 c-9 -9 -12 -76 -12 -265 l0 -253 34 -38 34 -37 270 -3
c238 -3 272 -1 286 13 23 23 21 72 -3 85 -12 6 -111 10 -253 10 -169 0 -237 3
-246 12 -9 9 -12 72 -12 222 0 235 -5 259 -55 264 -17 2 -36 -3 -43 -10z"/>
<path d="M2433 1058 c-4 -7 -10 -119 -13 -248 l-5 -235 -243 -5 c-201 -4 -244
-8 -252 -20 -15 -23 -12 -45 8 -69 16 -19 28 -20 272 -22 183 -2 261 1 277 10
49 25 53 52 53 316 0 151 -4 254 -10 266 -12 22 -74 27 -87 7z"/>
</g>
</svg>
