<?xml version="1.0" standalone="no"?>
<!DOCTYPE svg PUBLIC "-//W3C//DTD SVG 20010904//EN"
 "http://www.w3.org/TR/2001/REC-SVG-20010904/DTD/svg10.dtd">
<svg version="1.0" xmlns="http://www.w3.org/2000/svg"
 width="300.000000pt" height="300.000000pt" viewBox="0 0 300.000000 300.000000"
 preserveAspectRatio="xMidYMid meet">
<metadata>
Created by potrace 1.10, written by Peter Selinger 2001-2011
</metadata>
<g transform="translate(0.000000,300.000000) scale(0.100000,-0.100000)"
fill="#000000" stroke="none">
<path d="M1333 2610 c-324 -46 -630 -235 -803 -497 -211 -320 -247 -684 -103
-1033 127 -307 434 -571 771 -662 111 -30 126 -32 297 -31 163 0 189 2 278 26
391 105 685 377 806 747 39 122 51 198 51 338 0 242 -52 419 -180 607 -172
252 -407 417 -696 486 -100 24 -317 34 -421 19z m392 -140 c151 -36 266 -88
380 -171 70 -52 194 -180 240 -249 206 -310 227 -707 53 -1020 -103 -186 -270
-340 -470 -435 -202 -96 -482 -117 -715 -54 -347 93 -634 377 -724 716 -27
101 -37 308 -19 406 67 375 352 685 728 792 167 48 365 53 527 15z"/>
<path d="M1378 2024 c-52 -28 -58 -54 -58 -269 l0 -195 -284 0 c-176 0 -295
-4 -314 -11 -35 -12 -54 -52 -41 -86 18 -49 46 -53 353 -53 l285 0 3 -204 3
-205 29 -30 c34 -35 86 -49 123 -32 26 12 246 148 413 256 52 34 156 99 230
145 74 45 145 94 158 107 30 33 29 78 -4 108 -14 13 -163 105 -332 205 -169
100 -344 204 -388 231 -88 53 -127 60 -176 33z m219 -218 c296 -170 496 -287
511 -299 15 -11 25 -4 -376 -256 -134 -85 -253 -156 -263 -158 -18 -5 -19 7
-19 391 0 250 4 396 10 396 5 0 67 -33 137 -74z"/>
</g>
</svg>
