<?xml version="1.0" standalone="no"?>
<!DOCTYPE svg PUBLIC "-//W3C//DTD SVG 20010904//EN"
 "http://www.w3.org/TR/2001/REC-SVG-20010904/DTD/svg10.dtd">
<svg version="1.0" xmlns="http://www.w3.org/2000/svg"
 width="900.000000pt" height="900.000000pt" viewBox="0 0 900.000000 900.000000"
 preserveAspectRatio="xMidYMid meet">
<metadata>
Created by potrace 1.10, written by Peter Selinger 2001-2011
</metadata>
<g transform="translate(0.000000,900.000000) scale(0.100000,-0.100000)"
fill="#000000" stroke="none">
<path d="M4095 7510 c-27 -4 -95 -12 -151 -18 -55 -6 -113 -16 -128 -22 -15
-5 -42 -10 -59 -10 -18 0 -52 -6 -77 -14 -25 -8 -72 -22 -105 -31 -33 -9 -73
-21 -90 -27 -16 -5 -43 -14 -60 -18 -49 -14 -177 -60 -220 -80 -22 -10 -67
-30 -100 -45 -33 -14 -67 -30 -75 -35 -8 -5 -39 -21 -69 -36 -46 -22 -154 -84
-201 -114 -8 -6 -22 -13 -30 -17 -8 -3 -41 -26 -72 -50 -31 -24 -59 -43 -63
-43 -5 0 -103 -74 -164 -124 -140 -115 -417 -402 -452 -468 -7 -12 -38 -57
-69 -98 -59 -79 -111 -155 -123 -180 -4 -8 -16 -28 -27 -45 -11 -16 -23 -37
-26 -45 -11 -26 -45 -94 -54 -110 -17 -27 -92 -184 -100 -210 -5 -14 -18 -50
-30 -80 -49 -129 -107 -322 -134 -455 -59 -288 -75 -575 -49 -880 11 -123 17
-164 43 -280 6 -27 15 -68 19 -90 4 -22 12 -56 18 -75 6 -19 19 -62 28 -95 9
-33 23 -75 31 -93 8 -18 14 -40 14 -48 0 -9 6 -28 13 -42 8 -15 21 -43 29 -62
53 -121 77 -172 107 -230 18 -36 43 -83 54 -105 11 -22 30 -53 41 -70 12 -16
26 -37 31 -47 68 -116 195 -291 306 -423 180 -214 474 -460 744 -625 94 -57
241 -134 307 -161 29 -11 67 -27 83 -34 28 -12 59 -24 153 -59 20 -8 64 -22
97 -31 33 -10 71 -22 85 -27 14 -6 45 -14 70 -18 25 -5 68 -14 95 -20 28 -6
71 -16 97 -21 25 -6 86 -14 135 -19 48 -5 129 -14 178 -19 222 -26 631 4 860
61 22 5 58 13 80 17 22 5 51 13 65 18 14 6 52 18 85 28 33 9 78 24 100 32 22
8 58 22 80 30 70 26 268 116 315 143 8 5 38 21 65 35 70 37 75 40 225 139 74
49 151 102 170 118 19 16 69 56 110 90 99 82 308 294 384 391 85 109 236 321
236 332 0 2 15 25 33 52 34 51 162 307 192 383 17 44 27 67 59 143 9 21 16 44
16 52 0 8 6 29 14 47 8 18 22 62 31 98 9 36 23 88 30 115 18 70 41 183 62 300
24 138 23 623 -1 733 -9 40 -16 89 -16 109 0 50 -69 329 -102 413 -5 14 -20
57 -33 96 -13 40 -28 80 -33 90 -5 11 -16 35 -24 54 -35 82 -124 260 -158 315
-20 33 -39 65 -41 71 -2 6 -24 39 -49 73 -25 34 -71 99 -104 144 -32 45 -66
89 -75 98 -9 9 -41 45 -71 80 -167 195 -349 363 -530 489 -47 33 -89 63 -95
68 -5 4 -39 25 -75 45 -36 21 -72 42 -80 47 -8 5 -37 21 -65 35 -27 14 -57 30
-65 35 -25 15 -182 87 -240 110 -30 12 -67 28 -82 36 -14 8 -33 14 -41 14 -9
0 -28 6 -44 14 -26 13 -63 24 -203 63 -30 8 -71 20 -90 26 -19 6 -55 14 -80
18 -25 4 -74 12 -110 18 -36 7 -92 17 -125 22 -74 13 -562 20 -630 9z m500
-335 c149 -16 257 -33 368 -61 129 -32 184 -47 217 -59 91 -32 107 -37 130
-42 14 -3 34 -12 45 -19 11 -8 26 -14 33 -14 8 0 87 -36 175 -81 182 -90 188
-93 238 -131 20 -16 40 -28 43 -28 9 0 139 -90 151 -105 5 -6 37 -33 71 -58
81 -61 262 -241 355 -352 83 -100 169 -211 169 -219 0 -2 19 -33 42 -68 70
-103 220 -398 233 -455 3 -18 11 -35 16 -38 5 -4 9 -15 9 -27 0 -11 6 -32 14
-46 17 -35 36 -88 46 -132 13 -61 31 -133 46 -186 8 -28 14 -68 14 -90 0 -21
7 -77 15 -124 21 -117 20 -470 0 -594 -34 -198 -53 -285 -91 -406 -8 -25 -14
-53 -14 -62 0 -10 -6 -32 -14 -50 -8 -18 -21 -51 -29 -73 -40 -107 -99 -246
-117 -275 -5 -8 -20 -35 -33 -60 -14 -25 -34 -61 -45 -80 -11 -19 -30 -52 -41
-73 -12 -21 -52 -80 -90 -130 -37 -51 -72 -99 -77 -108 -41 -73 -364 -395
-504 -502 -53 -40 -180 -127 -185 -127 -2 0 -23 -12 -47 -27 -65 -42 -77 -49
-158 -88 -168 -83 -226 -107 -390 -164 -92 -32 -293 -81 -415 -100 -364 -56
-669 -44 -1042 43 -74 17 -225 63 -270 82 -17 8 -36 14 -42 14 -14 0 -92 35
-311 138 -19 10 -52 29 -74 45 -21 15 -43 27 -47 27 -4 0 -38 21 -76 47 -37
26 -88 60 -113 77 -25 16 -47 33 -50 36 -3 4 -28 24 -55 46 -173 135 -380 358
-505 544 -8 12 -27 40 -43 61 -68 97 -202 343 -254 467 -30 73 -41 99 -57 135
-9 21 -16 42 -16 48 0 6 -6 25 -14 42 -16 40 -35 108 -45 167 -4 25 -13 63
-19 85 -6 22 -19 90 -28 150 -25 158 -25 598 -1 740 38 213 80 384 123 498 34
91 47 124 59 152 23 53 116 239 142 285 39 67 192 298 211 317 10 9 34 39 55
67 79 105 275 294 412 398 108 81 204 145 245 164 8 4 22 13 30 20 18 15 298
158 326 167 10 3 44 15 74 27 30 12 69 25 85 30 17 5 44 13 60 18 28 10 77 24
185 53 58 15 181 36 295 49 50 6 110 15 135 19 74 14 285 12 445 -4z"/>
<path d="M3714 6379 c-17 -5 -38 -17 -46 -26 -23 -26 -50 -112 -42 -137 22
-79 65 -126 137 -150 42 -14 125 -16 660 -16 583 0 614 1 652 20 49 23 67 38
87 70 40 64 29 154 -26 209 l-36 36 -678 2 c-384 1 -690 -2 -708 -8z"/>
<path d="M3228 5966 c-41 -18 -78 -56 -99 -103 -18 -41 -19 -82 -19 -1297 0
-1235 0 -1256 20 -1294 41 -79 116 -132 185 -132 48 0 141 37 185 74 8 7 22
16 30 20 8 3 42 22 75 41 33 19 69 40 80 45 11 6 34 19 50 29 17 11 50 31 75
44 25 14 61 34 80 46 19 11 44 25 56 30 11 5 50 27 85 48 35 22 71 42 79 46 8
4 29 16 45 27 17 11 39 24 50 29 11 5 36 20 55 33 19 13 42 27 50 31 8 4 42
23 75 42 33 19 69 40 80 45 11 6 34 19 50 30 17 11 37 23 45 27 8 4 47 26 85
48 39 23 77 44 85 48 8 4 42 23 75 42 33 19 69 40 80 45 11 6 34 19 50 30 17
11 39 24 50 30 11 6 34 19 50 30 17 11 39 24 50 30 11 6 34 19 50 30 17 11 39
24 50 30 11 6 34 19 50 30 17 11 37 23 45 27 72 32 212 146 231 188 5 11 13
27 18 35 46 79 53 164 20 237 -42 91 -147 175 -374 299 -38 20 -83 45 -100 55
-16 10 -52 29 -80 44 -27 14 -77 41 -110 60 -33 19 -82 46 -110 60 -27 15 -77
42 -110 60 -33 19 -69 39 -80 45 -11 6 -47 26 -80 44 -33 19 -96 53 -140 76
-44 23 -107 57 -140 75 -33 18 -96 52 -140 75 -44 23 -107 56 -140 75 -33 18
-103 55 -155 82 -87 46 -149 79 -255 140 -142 80 -235 101 -307 69z m274 -435
c2 -5 68 -43 148 -84 125 -64 217 -112 380 -200 19 -10 58 -32 85 -48 28 -16
77 -43 110 -60 33 -17 74 -39 90 -49 45 -28 130 -75 220 -121 44 -22 94 -49
110 -59 17 -10 53 -30 80 -44 28 -14 86 -46 130 -71 44 -25 107 -59 140 -76
33 -16 74 -39 90 -49 17 -11 51 -30 77 -42 26 -13 48 -27 48 -33 0 -5 -23 -23
-52 -40 -29 -16 -73 -42 -98 -57 -25 -15 -54 -32 -65 -38 -11 -6 -47 -26 -80
-45 -33 -19 -69 -40 -80 -45 -11 -6 -33 -19 -50 -30 -16 -10 -52 -31 -80 -45
-27 -14 -63 -34 -80 -45 -16 -11 -39 -24 -50 -29 -12 -5 -61 -33 -110 -63 -50
-30 -97 -57 -105 -61 -8 -4 -28 -16 -45 -27 -16 -10 -52 -30 -80 -44 -27 -13
-67 -36 -88 -50 -21 -14 -40 -26 -43 -26 -3 0 -76 -42 -162 -94 -87 -52 -173
-103 -192 -115 -19 -11 -46 -26 -60 -32 -14 -6 -39 -21 -57 -35 -17 -13 -35
-24 -39 -24 -4 0 -29 -14 -56 -31 -91 -55 -82 -148 -88 939 -3 529 -3 967 -2
972 5 13 49 13 54 1z"/>
<path d="M3805 2952 c-56 -5 -75 -12 -110 -44 -86 -75 -87 -188 -2 -252 l33
-26 525 0 c288 0 595 0 682 0 l158 0 40 38 c87 81 67 219 -40 270 -33 15 -89
17 -646 17 -335 0 -623 -1 -640 -3z"/>
<path d="M0 46 c0 -40 3 -46 21 -46 18 0 20 5 17 42 -2 31 -8 44 -20 46 -15 3
-18 -4 -18 -42z"/>
</g>
</svg>
