<?xml version="1.0" standalone="no"?>
<!DOCTYPE svg PUBLIC "-//W3C//DTD SVG 20010904//EN"
 "http://www.w3.org/TR/2001/REC-SVG-20010904/DTD/svg10.dtd">
<svg version="1.0" xmlns="http://www.w3.org/2000/svg"
 width="300.000000pt" height="300.000000pt" viewBox="0 0 300.000000 300.000000"
 preserveAspectRatio="xMidYMid meet">
<metadata>
Created by potrace 1.10, written by Peter Selinger 2001-2011
</metadata>
<g transform="translate(0.000000,300.000000) scale(0.100000,-0.100000)"
fill="#000000" stroke="none">
<path d="M1280 2341 c-313 -67 -563 -286 -677 -597 l-37 -99 0 -170 c-1 -148
2 -180 22 -248 70 -241 238 -455 457 -580 334 -191 757 -141 1039 123 58 54
132 155 141 193 14 56 -34 111 -87 99 -10 -2 -31 -27 -47 -55 -70 -122 -226
-252 -359 -298 -378 -132 -768 44 -956 431 -62 126 -80 214 -74 354 4 84 12
130 32 191 84 248 295 450 540 514 260 68 508 10 686 -161 32 -31 78 -84 102
-118 43 -61 69 -77 107 -65 29 9 54 60 46 93 -11 52 -148 195 -259 271 -183
126 -439 172 -676 122z"/>
<path d="M1182 2070 c-12 -5 -27 -21 -34 -35 -18 -39 9 -67 168 -174 177 -120
262 -169 509 -292 110 -56 204 -104 208 -108 12 -12 -151 -104 -463 -263 -351
-178 -397 -204 -416 -234 -25 -38 4 -94 49 -94 24 0 27 2 167 80 52 29 190
101 305 159 196 100 508 276 547 309 11 9 18 29 18 48 l0 33 -297 150 c-280
141 -397 210 -610 357 -98 68 -118 77 -151 64z"/>
<path d="M881 1823 c-35 -28 -41 -81 -41 -381 0 -426 1 -427 311 -308 95 37
180 73 187 79 46 37 27 107 -28 107 -16 0 -97 -26 -180 -59 l-150 -59 0 244
c0 134 4 244 8 244 5 0 79 -29 165 -65 130 -55 160 -64 177 -55 25 14 41 50
33 79 -6 25 -26 36 -172 98 -236 99 -271 108 -310 76z"/>
<path d="M2390 1805 c-17 -21 -15 -595 3 -612 7 -6 24 -15 39 -18 21 -5 33 -1
52 19 l26 25 0 278 c0 317 -1 323 -69 323 -22 0 -44 -6 -51 -15z"/>
</g>
</svg>
