<svg xmlns="http://www.w3.org/2000/svg" xmlns:xlink="http://www.w3.org/1999/xlink" viewBox="0 0 50 50" fill="#FDFDFD">
  <path d="M28.40625 5C27.855469 5.050781 27.449219 5.542969 27.5 6.09375C27.550781 6.644531 28.042969 7.050781 28.59375 7L41.59375 7L7 41.59375L7 28.59375C7.007813 28.285156 6.871094 27.992188 6.632813 27.796875C6.398438 27.601563 6.082031 27.527344 5.78125 27.59375C5.316406 27.699219 4.988281 28.117188 5 28.59375L5 45L21.40625 45C21.765625 45.003906 22.101563 44.816406 22.285156 44.503906C22.464844 44.191406 22.464844 43.808594 22.285156 43.496094C22.101563 43.183594 21.765625 42.996094 21.40625 43L8.40625 43L43 8.40625L43 21.40625C42.996094 21.765625 43.183594 22.101563 43.496094 22.285156C43.808594 22.464844 44.191406 22.464844 44.503906 22.285156C44.816406 22.101563 45.003906 21.765625 45 21.40625L45 5L28.59375 5C28.5625 5 28.53125 5 28.5 5C28.46875 5 28.4375 5 28.40625 5Z" fill="#FDFDFD" />
</svg>