<svg xmlns="http://www.w3.org/2000/svg" xmlns:xlink="http://www.w3.org/1999/xlink" viewBox="0 0 26 26" fill="#00B7EB">
  <path d="M11.300781 21C7.101563 18.199219 3.300781 13.800781 3.199219 13.601563C3.101563 13.5 3 13.199219 3 13C3 12.800781 3.101563 12.5 3.199219 12.300781C3.300781 12.101563 7.199219 7.699219 11.300781 4.898438C11.601563 4.699219 12 4.699219 12.398438 4.800781C12.800781 5.101563 13 5.398438 13 5.800781L13 9.5C13 9.5 21.699219 10 22.101563 10.300781C22.699219 10.699219 23 12 23 13C23 14.101563 22.601563 15.199219 22.101563 15.601563C21.699219 15.898438 13 16.5 13 16.5L13 20.199219C13 20.601563 12.800781 20.898438 12.398438 21.101563C12.101563 21.300781 11.699219 21.199219 11.300781 21Z" fill="#00B7EB" />
</svg>