<svg id="svg" version="1.1" xmlns="http://www.w3.org/2000/svg" xmlns:xlink="http://www.w3.org/1999/xlink" width="400" height="529.4117647058823" viewBox="0, 0, 400,529.4117647058823"><g id="svgg"><path id="path0" d="M62.800 100.356 C 62.800 100.551,62.485 100.686,62.100 100.656 C 61.691 100.623,61.398 100.879,61.395 101.272 C 61.392 101.641,61.257 102.076,61.095 102.238 C 60.933 102.401,60.800 102.857,60.800 103.252 C 60.800 103.883,60.351 103.984,57.104 104.085 L 53.408 104.200 53.284 105.987 C 53.131 108.185,53.510 107.950,49.986 108.027 C 46.268 108.108,45.477 108.301,45.766 109.057 C 45.901 109.407,45.820 109.536,45.565 109.378 C 45.292 109.209,45.186 109.525,45.269 110.257 C 45.393 111.335,45.287 111.423,43.416 111.800 C 41.473 112.192,41.430 112.232,41.336 113.747 C 41.217 115.653,41.288 115.587,39.266 115.666 C 38.350 115.702,37.591 115.747,37.580 115.766 C 37.568 115.785,37.459 116.610,37.336 117.600 C 37.066 119.777,37.278 119.550,35.380 119.695 C 34.511 119.762,33.786 119.993,33.769 120.208 C 33.555 122.917,33.129 123.557,31.459 123.679 C 30.336 123.761,29.783 123.994,29.746 124.400 C 29.717 124.730,29.672 126.440,29.646 128.200 L 29.600 131.400 28.200 131.473 C 25.464 131.617,25.600 131.407,25.600 135.467 L 25.600 139.200 24.500 139.247 C 23.895 139.273,23.255 139.270,23.079 139.240 C 21.847 139.031,21.656 140.362,21.615 149.423 C 21.570 159.534,21.671 158.935,20.006 158.888 C 19.343 158.869,18.800 159.032,18.800 159.250 C 18.800 159.469,18.635 159.545,18.433 159.420 C 17.886 159.082,17.653 160.929,17.680 165.400 C 17.710 170.415,17.704 170.400,19.843 170.400 L 21.600 170.400 21.621 182.300 C 21.653 199.956,21.655 200.144,21.855 200.879 C 21.978 201.328,22.639 201.647,23.815 201.823 L 25.589 202.089 25.695 215.545 L 25.800 229.000 27.700 229.122 L 29.600 229.244 29.662 243.322 C 29.696 251.065,29.687 257.820,29.642 258.334 C 29.523 259.676,30.297 260.400,31.849 260.400 L 33.200 260.400 33.200 264.557 C 33.200 268.874,32.929 269.531,31.395 268.943 C 30.440 268.576,29.571 269.586,29.662 270.957 C 29.707 271.641,29.711 278.445,29.672 286.078 L 29.600 299.956 27.700 300.078 L 25.800 300.200 25.695 313.711 L 25.589 327.222 24.295 327.496 C 23.583 327.646,22.836 327.721,22.637 327.663 C 21.790 327.417,21.672 329.265,21.623 343.545 C 21.594 351.805,21.517 358.616,21.452 358.682 C 21.386 358.747,20.590 358.830,19.683 358.865 C 18.775 358.901,18.126 359.081,18.240 359.265 C 18.354 359.449,18.272 359.600,18.058 359.600 C 17.821 359.600,17.702 361.575,17.755 364.627 C 17.850 370.145,17.955 370.383,20.300 370.394 L 21.600 370.400 21.647 379.300 C 21.673 384.195,21.667 388.354,21.633 388.542 C 21.492 389.331,22.601 390.000,24.049 390.000 L 25.600 390.000 25.600 393.757 C 25.600 397.894,25.665 398.000,28.233 398.000 L 29.600 398.000 29.646 401.100 C 29.672 402.805,29.717 404.470,29.746 404.800 C 29.783 405.206,30.336 405.439,31.459 405.521 C 33.129 405.643,33.559 406.290,33.769 409.000 C 33.786 409.220,34.565 409.455,35.500 409.523 C 37.074 409.637,37.204 409.734,37.250 410.823 C 37.277 411.470,37.345 412.180,37.400 412.400 C 37.455 412.620,37.523 412.980,37.550 413.200 C 37.578 413.420,38.410 413.600,39.400 413.600 C 41.282 413.600,41.460 413.839,41.266 416.111 C 41.198 416.910,42.630 417.600,44.357 417.600 C 45.368 417.600,45.446 417.707,45.277 418.857 C 45.150 419.720,45.233 420.027,45.542 419.836 C 45.820 419.664,45.908 419.775,45.772 420.128 C 45.478 420.895,46.250 421.135,50.011 421.449 C 53.096 421.706,53.201 421.749,53.246 422.758 C 53.272 423.331,53.317 424.070,53.346 424.400 C 53.389 424.877,54.155 425.024,57.067 425.115 L 60.735 425.229 61.007 426.839 C 61.420 429.283,60.872 429.236,87.072 429.112 C 113.224 428.989,111.581 429.164,111.594 426.500 L 111.600 425.200 114.626 425.200 C 118.259 425.200,119.084 424.824,119.424 423.015 C 119.669 421.707,119.771 421.635,121.541 421.520 L 123.400 421.400 123.520 419.556 L 123.639 417.712 126.920 417.445 C 130.503 417.153,131.200 416.710,131.200 414.724 C 131.200 413.711,131.335 413.600,132.567 413.600 C 134.847 413.600,135.200 413.299,135.200 411.357 L 135.200 409.600 136.720 409.600 C 138.636 409.600,139.200 409.036,139.200 407.120 L 139.200 405.600 140.953 405.600 C 142.805 405.600,143.181 405.147,143.195 402.900 C 143.199 402.126,143.412 402.000,144.720 402.000 C 146.630 402.000,147.200 401.436,147.200 399.543 C 147.200 398.068,147.225 398.044,148.900 397.923 L 150.600 397.800 150.721 395.921 L 150.842 394.042 152.721 393.921 L 154.600 393.800 154.722 391.900 L 154.844 390.000 156.822 390.000 L 158.800 390.000 158.800 388.000 L 158.800 386.000 160.800 386.000 L 162.800 386.000 162.800 384.000 L 162.800 382.000 164.800 382.000 L 166.800 382.000 166.800 380.258 L 166.800 378.515 170.100 378.246 C 173.701 377.953,174.400 377.512,174.400 375.531 C 174.400 374.410,174.646 374.257,177.000 373.915 C 177.581 373.830,177.903 373.334,178.177 372.099 C 178.539 370.467,178.613 370.400,180.063 370.400 C 181.763 370.400,182.400 369.650,182.400 367.648 C 182.400 366.495,182.481 366.439,184.300 366.322 L 186.200 366.200 186.322 364.300 L 186.444 362.400 190.222 362.400 L 194.000 362.400 194.000 360.600 L 194.000 358.800 197.757 358.800 C 201.882 358.800,202.000 358.728,202.000 356.220 L 202.000 354.906 207.259 354.716 C 213.031 354.508,213.600 354.257,213.600 351.924 L 213.600 350.800 216.971 350.800 C 220.837 350.800,221.600 350.366,221.600 348.171 L 221.600 346.800 225.357 346.800 C 229.494 346.800,229.600 346.735,229.600 344.167 L 229.600 342.800 233.400 342.800 L 237.200 342.800 237.200 341.057 L 237.200 339.315 242.403 339.104 C 248.079 338.874,248.685 338.646,248.877 336.670 L 249.000 335.400 252.400 335.191 C 256.514 334.938,256.800 334.781,256.800 332.776 L 256.800 331.200 260.557 331.200 C 264.694 331.200,264.800 331.135,264.800 328.567 L 264.800 327.200 268.600 327.200 L 272.400 327.200 272.400 325.214 L 272.400 323.229 276.300 323.114 L 280.200 323.000 280.320 321.356 L 280.441 319.712 283.698 319.440 C 287.391 319.132,287.904 318.854,288.077 317.070 C 288.176 316.052,288.398 315.778,289.200 315.688 C 291.881 315.388,292.000 315.291,292.000 313.414 L 292.000 311.644 293.900 311.522 L 295.800 311.400 295.922 309.500 C 296.036 307.723,296.115 307.600,297.145 307.600 C 299.221 307.600,299.707 306.838,299.914 303.260 L 300.103 300.000 301.809 300.000 C 303.898 300.000,304.000 299.785,304.000 295.389 L 304.000 292.044 305.900 291.922 L 307.800 291.800 307.911 286.100 C 308.020 280.512,308.039 280.400,308.911 280.395 C 309.400 280.392,310.205 280.281,310.700 280.148 L 311.600 279.907 311.600 264.599 L 311.600 249.291 309.800 249.021 L 308.000 248.751 307.994 243.475 C 307.988 238.656,307.753 237.073,307.055 237.166 C 306.915 237.185,306.170 237.200,305.400 237.200 L 304.000 237.200 304.000 233.614 C 304.000 229.806,303.460 228.816,301.685 229.369 C 300.462 229.749,300.112 229.054,299.910 225.836 C 299.692 222.362,299.195 221.600,297.145 221.600 C 296.115 221.600,296.036 221.477,295.922 219.700 C 295.792 217.681,295.888 217.750,293.100 217.643 C 292.070 217.603,292.000 217.486,292.000 215.808 C 292.000 214.045,291.275 213.333,289.774 213.623 C 288.429 213.882,288.000 213.549,288.000 212.249 C 288.000 210.703,287.430 210.078,286.000 210.054 C 285.450 210.045,284.010 209.958,282.800 209.860 L 280.600 209.683 280.470 208.147 C 280.301 206.139,280.033 206.013,275.900 206.006 L 272.400 206.000 272.400 204.000 L 272.400 202.000 268.600 202.000 L 264.800 202.000 264.794 200.500 C 264.787 198.916,264.369 197.912,263.763 198.026 C 263.564 198.064,261.915 198.073,260.100 198.047 L 256.800 198.000 256.800 196.390 C 256.800 194.375,256.032 194.012,251.918 194.085 L 249.000 194.137 248.867 192.770 C 248.698 191.021,248.196 190.437,246.867 190.439 C 246.280 190.440,245.080 190.361,244.200 190.262 C 243.320 190.164,241.385 190.065,239.900 190.042 L 237.200 190.000 237.200 188.200 L 237.200 186.400 233.400 186.400 L 229.600 186.400 229.600 185.033 C 229.600 182.465,229.494 182.400,225.357 182.400 L 221.600 182.400 221.594 181.100 C 221.582 178.646,221.282 178.500,216.100 178.432 C 213.634 178.400,213.600 178.385,213.600 177.276 C 213.600 174.871,212.453 174.476,205.300 174.424 L 202.000 174.400 202.000 172.814 C 202.000 170.793,201.451 170.501,197.600 170.473 C 195.950 170.461,194.465 170.440,194.300 170.426 C 194.135 170.412,194.000 169.590,194.000 168.600 C 194.000 167.610,193.865 166.821,193.700 166.847 C 193.535 166.873,191.825 166.873,189.900 166.847 L 186.400 166.800 186.400 165.433 C 186.400 163.153,186.099 162.800,184.157 162.800 C 182.443 162.800,182.400 162.768,182.394 161.500 C 182.391 160.785,182.216 159.930,182.007 159.600 C 181.622 158.993,181.417 158.929,179.577 158.846 C 178.711 158.807,178.496 158.538,178.177 157.101 C 177.903 155.866,177.581 155.370,177.000 155.285 C 174.693 154.950,174.400 154.778,174.400 153.766 C 174.400 152.056,173.715 151.226,172.293 151.213 C 171.582 151.207,170.550 151.126,170.000 151.034 C 169.450 150.942,168.515 150.852,167.923 150.833 C 166.948 150.803,166.834 150.639,166.723 149.100 L 166.600 147.400 164.721 147.279 L 162.842 147.158 162.721 145.279 L 162.600 143.400 160.700 143.278 L 158.800 143.156 158.800 141.178 C 158.800 140.090,158.665 139.221,158.500 139.247 C 158.335 139.273,157.445 139.273,156.522 139.247 L 154.844 139.200 154.722 137.300 C 154.594 135.302,154.638 135.336,152.100 135.246 C 150.865 135.202,150.800 135.123,150.800 133.649 C 150.800 131.940,150.037 131.010,148.919 131.358 C 147.798 131.707,147.271 131.128,147.130 129.395 L 147.000 127.800 145.100 127.678 C 143.335 127.565,143.200 127.480,143.195 126.478 C 143.182 124.043,142.837 123.600,140.953 123.600 L 139.200 123.600 139.200 122.049 C 139.200 120.601,138.531 119.492,137.742 119.633 C 135.734 119.994,135.200 119.610,135.200 117.808 C 135.200 116.012,134.063 115.019,132.859 115.764 C 132.112 116.225,131.200 115.509,131.194 114.457 C 131.181 112.306,130.760 112.105,125.800 111.888 L 123.800 111.800 123.600 110.000 L 123.400 108.200 121.500 108.078 C 119.681 107.961,119.600 107.905,119.600 106.752 C 119.600 104.281,119.150 104.000,115.186 104.000 L 111.600 104.000 111.594 102.700 C 111.581 100.035,113.253 100.210,86.815 100.100 C 72.997 100.042,62.800 100.151,62.800 100.356 M104.358 105.762 C 104.821 106.181,105.200 106.838,105.200 107.223 C 105.200 108.167,107.159 108.800,110.079 108.800 C 112.490 108.800,114.400 109.969,114.400 111.444 C 114.400 112.164,115.694 112.800,117.157 112.800 C 118.019 112.800,118.845 113.255,120.034 114.386 C 120.951 115.259,122.512 116.282,123.502 116.660 C 124.830 117.167,125.442 117.681,125.832 118.615 C 126.386 119.940,127.928 121.200,128.996 121.200 C 129.368 121.200,129.716 121.680,129.858 122.391 C 130.122 123.709,130.588 124.195,132.505 125.153 C 133.299 125.550,133.851 126.156,133.931 126.721 C 134.018 127.341,134.542 127.847,135.531 128.270 C 138.054 129.347,138.196 129.457,138.338 130.441 C 138.527 131.751,139.019 132.264,140.339 132.528 C 141.191 132.698,141.613 133.142,142.098 134.376 C 142.449 135.270,143.065 136.103,143.468 136.229 C 144.937 136.688,145.413 137.100,146.080 138.488 C 146.606 139.582,147.074 139.962,148.140 140.162 C 149.696 140.454,150.219 140.941,150.598 142.448 C 150.790 143.214,151.259 143.611,152.365 143.942 C 153.617 144.317,153.959 144.662,154.399 145.997 C 154.789 147.179,155.148 147.603,155.764 147.613 C 157.031 147.632,158.062 148.607,158.361 150.069 C 158.597 151.225,158.822 151.416,160.234 151.657 C 161.877 151.937,164.400 153.773,164.400 154.689 C 164.400 154.970,164.580 155.200,164.800 155.200 C 165.020 155.200,165.902 155.938,166.760 156.840 C 167.618 157.742,168.527 158.687,168.780 158.940 C 169.033 159.193,169.541 159.715,169.909 160.100 C 170.277 160.485,170.898 160.800,171.289 160.800 C 171.680 160.800,172.000 160.961,172.000 161.158 C 172.000 162.012,174.371 164.000,175.390 164.000 C 176.259 164.000,176.585 164.300,177.130 165.597 C 177.642 166.819,178.130 167.301,179.200 167.648 C 180.958 168.217,181.920 169.044,182.078 170.121 C 182.180 170.825,182.640 171.031,184.959 171.409 C 187.698 171.855,189.200 172.845,189.200 174.202 C 189.200 174.857,189.888 175.112,192.495 175.420 C 196.075 175.844,197.208 176.338,197.457 177.585 C 197.671 178.656,197.816 178.716,201.314 179.194 C 204.776 179.667,205.031 179.771,206.697 181.391 C 208.257 182.907,208.712 183.119,210.896 183.347 C 213.614 183.631,215.058 184.376,215.587 185.765 C 215.971 186.775,217.344 187.200,220.224 187.200 C 222.814 187.200,223.916 187.762,224.309 189.284 L 224.649 190.600 228.164 191.000 C 231.744 191.407,233.200 192.230,233.200 193.844 C 233.200 194.170,233.612 194.400,234.194 194.400 C 234.741 194.400,235.956 194.578,236.894 194.795 C 237.832 195.013,239.248 195.286,240.041 195.402 C 241.166 195.568,241.643 195.913,242.217 196.980 C 243.013 198.458,243.729 198.785,246.200 198.797 C 248.387 198.807,250.800 199.525,250.800 200.165 C 250.800 201.770,252.410 202.800,254.929 202.805 C 258.480 202.813,259.055 203.055,259.769 204.839 C 260.369 206.339,260.468 206.401,262.297 206.432 C 265.636 206.489,267.655 207.236,268.368 208.681 C 269.000 209.962,271.121 210.800,273.731 210.800 C 274.971 210.800,276.400 211.890,276.400 212.835 C 276.400 213.270,276.625 213.688,276.900 213.765 C 281.023 214.915,281.986 215.403,282.447 216.577 C 282.985 217.947,284.287 219.178,285.211 219.191 C 285.937 219.202,287.071 220.437,287.263 221.426 C 287.338 221.813,288.120 222.531,289.000 223.023 C 289.880 223.515,290.665 224.243,290.745 224.642 C 290.991 225.865,292.055 227.200,292.784 227.200 C 293.984 227.200,296.000 230.782,296.000 232.913 C 296.000 233.325,296.309 233.600,296.771 233.600 C 298.036 233.600,299.097 235.392,299.406 238.049 C 299.595 239.680,299.939 240.706,300.444 241.144 C 300.860 241.505,301.541 242.096,301.958 242.458 C 302.807 243.195,303.048 244.457,303.420 250.116 C 303.656 253.705,303.770 254.122,304.789 255.116 C 307.601 257.856,307.697 272.135,304.919 274.384 C 303.841 275.257,303.712 275.781,303.215 281.276 C 302.713 286.846,302.665 286.993,301.191 287.604 C 299.999 288.097,300.070 287.904,298.940 293.737 C 298.798 294.474,298.242 295.156,297.360 295.677 C 296.612 296.118,296.000 296.725,296.000 297.026 C 296.000 298.701,293.854 302.000,292.765 302.000 C 292.374 302.000,291.940 302.360,291.800 302.800 C 291.660 303.240,291.378 303.600,291.173 303.600 C 290.968 303.600,290.800 303.932,290.800 304.338 C 290.800 305.187,289.786 306.188,288.543 306.566 C 288.072 306.709,287.456 307.381,287.176 308.058 C 286.872 308.792,285.903 309.759,284.779 310.451 C 283.741 311.090,282.686 312.109,282.435 312.716 C 281.980 313.814,279.145 315.198,277.346 315.201 C 276.896 315.202,276.283 315.792,275.800 316.689 C 275.159 317.880,274.683 318.241,273.400 318.505 C 270.183 319.168,268.812 319.731,268.572 320.489 C 268.149 321.820,266.018 322.797,263.533 322.799 C 260.810 322.800,260.000 323.065,260.000 323.954 C 260.000 325.748,258.894 326.400,255.853 326.400 C 252.858 326.400,251.200 327.181,251.200 328.593 C 251.200 329.559,249.506 330.400,247.561 330.400 C 244.260 330.400,243.250 330.773,242.549 332.251 C 242.197 332.993,241.853 333.600,241.784 333.600 C 241.715 333.600,239.832 333.960,237.600 334.400 C 235.368 334.840,233.464 335.200,233.371 335.200 C 233.277 335.200,233.200 335.450,233.200 335.756 C 233.200 337.157,231.831 338.003,229.200 338.228 C 225.204 338.571,224.888 338.693,224.191 340.162 C 223.496 341.627,221.562 342.400,218.597 342.400 C 216.922 342.400,215.600 342.997,215.600 343.752 C 215.600 344.723,214.154 345.594,212.171 345.819 C 208.870 346.192,207.284 346.809,207.031 347.821 C 206.767 348.870,204.560 349.805,201.400 350.204 C 198.176 350.612,197.600 350.829,197.600 351.634 C 197.600 352.734,196.176 353.437,192.767 354.018 C 189.901 354.507,189.692 354.614,188.967 355.968 C 188.253 357.300,187.990 357.442,185.200 358.000 C 182.582 358.524,182.183 358.718,182.069 359.525 C 181.931 360.499,179.897 361.996,178.708 361.999 C 178.304 361.999,177.676 362.667,177.200 363.600 C 176.751 364.480,176.209 365.200,175.995 365.200 C 175.035 365.200,172.372 366.660,172.170 367.296 C 172.047 367.683,171.783 368.000,171.584 368.000 C 171.385 368.000,169.642 369.638,167.711 371.641 C 162.469 377.076,162.342 377.182,160.419 377.749 C 159.024 378.159,158.575 378.509,158.347 379.362 C 157.945 380.866,157.369 381.466,156.082 381.724 C 155.263 381.887,154.844 382.322,154.447 383.421 C 154.039 384.548,153.551 385.041,152.387 385.498 C 151.353 385.904,150.782 386.418,150.611 387.097 C 150.274 388.440,149.453 389.199,148.329 389.206 C 147.061 389.214,146.587 389.597,146.136 390.971 C 145.786 392.040,145.392 392.386,143.600 393.198 C 143.270 393.348,142.628 394.174,142.173 395.035 C 141.644 396.036,140.924 396.738,140.173 396.984 C 138.638 397.486,138.746 397.369,138.439 398.872 C 138.212 399.979,137.893 400.281,136.401 400.800 C 135.061 401.265,134.440 401.777,133.845 402.907 C 133.386 403.780,132.763 404.400,132.345 404.400 C 131.433 404.400,130.000 405.925,130.000 406.895 C 130.000 407.380,129.428 407.895,128.356 408.375 C 127.162 408.910,126.522 409.534,126.018 410.656 C 125.403 412.024,125.054 412.280,122.962 412.903 C 120.143 413.742,119.921 413.886,119.310 415.278 C 118.959 416.078,118.445 416.428,117.318 416.631 C 115.133 417.026,114.400 417.505,114.400 418.538 C 114.400 420.456,113.593 420.907,110.267 420.842 C 107.143 420.782,105.200 421.450,105.200 422.584 C 105.200 423.382,103.903 424.230,102.400 424.416 C 100.780 424.616,99.302 424.622,82.638 424.494 L 70.276 424.400 68.665 422.706 L 67.054 421.013 63.187 420.806 C 59.053 420.586,58.000 420.138,58.000 418.600 C 58.000 417.302,57.322 416.934,54.485 416.690 C 51.632 416.444,50.993 416.066,50.666 414.428 C 50.485 413.526,50.103 413.167,48.917 412.785 C 46.898 412.134,46.400 411.689,46.400 410.537 C 46.400 409.771,46.021 409.409,44.568 408.786 C 43.096 408.155,42.612 407.686,42.107 406.401 C 41.630 405.186,41.259 404.800,40.568 404.800 C 39.421 404.800,38.404 403.807,38.387 402.671 C 38.370 401.483,37.607 400.584,36.351 400.271 C 35.151 399.973,34.486 398.661,34.074 395.782 C 33.824 394.037,33.675 393.818,32.528 393.521 C 31.086 393.148,30.637 392.131,30.195 388.237 C 29.859 385.275,29.676 384.803,28.857 384.787 C 26.741 384.746,26.636 384.289,26.282 373.488 C 26.100 367.939,25.965 363.130,25.984 362.800 C 26.002 362.470,26.185 356.942,26.390 350.515 C 26.782 338.255,26.992 336.968,28.751 336.026 C 29.853 335.436,30.010 334.066,30.384 321.743 C 30.740 310.013,30.898 309.047,32.566 308.413 C 33.846 307.926,34.058 306.135,34.239 294.218 C 34.399 283.758,34.535 282.822,36.398 279.400 C 38.933 274.741,39.042 254.265,36.546 251.576 C 34.812 249.707,34.324 246.638,34.229 237.000 C 34.121 226.103,33.724 221.621,32.838 221.286 C 30.871 220.542,30.476 218.377,30.410 208.000 C 30.362 200.363,29.817 193.872,29.207 193.669 C 27.048 192.949,26.779 191.461,26.374 178.000 C 26.192 171.950,26.031 166.820,26.015 166.600 C 25.867 164.504,26.589 146.782,26.851 146.082 C 27.039 145.577,27.774 144.920,28.484 144.621 C 29.731 144.097,29.795 143.952,30.387 140.339 C 30.998 136.611,31.004 136.599,32.386 136.152 C 33.707 135.725,33.791 135.584,34.197 133.099 C 34.626 130.480,35.280 129.200,36.188 129.200 C 37.088 129.200,38.400 127.718,38.400 126.702 C 38.400 125.540,38.961 124.976,40.504 124.588 C 41.227 124.407,41.832 123.832,42.268 122.914 C 42.737 121.925,43.440 121.297,44.666 120.772 C 46.129 120.145,46.400 119.851,46.400 118.894 C 46.400 117.459,47.055 116.800,48.480 116.800 C 49.096 116.800,49.600 116.620,49.600 116.400 C 49.600 116.180,49.870 116.000,50.200 116.000 C 50.565 116.000,50.800 115.628,50.800 115.049 C 50.800 113.648,51.751 113.084,54.918 112.608 C 57.657 112.196,57.766 112.137,58.093 110.875 C 58.504 109.288,59.590 108.801,62.726 108.798 C 66.022 108.795,67.696 108.222,68.529 106.813 C 69.632 104.945,70.603 104.849,87.658 104.927 C 102.636 104.996,103.564 105.042,104.358 105.762 " stroke="none" fill="#7a796a" fill-rule="evenodd"></path><path id="path1" d="M76.747 108.051 C 74.821 109.072,71.674 109.936,68.000 110.455 C 63.385 111.106,63.294 111.135,62.025 112.376 C 61.350 113.036,59.657 113.934,58.117 114.449 C 56.623 114.949,55.336 115.513,55.259 115.703 C 54.883 116.621,53.221 117.933,51.597 118.595 C 50.446 119.064,49.391 119.895,48.682 120.891 C 48.071 121.749,47.037 122.638,46.386 122.865 C 45.656 123.119,44.955 123.795,44.562 124.625 C 44.153 125.485,43.362 126.229,42.372 126.686 C 41.519 127.079,40.816 127.632,40.810 127.916 C 40.791 128.862,39.183 131.616,37.783 133.100 C 37.022 133.907,36.400 134.808,36.400 135.103 C 36.400 135.965,35.185 138.132,34.215 139.000 C 33.246 139.868,32.606 141.577,32.192 144.400 C 31.831 146.868,31.074 149.033,29.745 151.397 L 28.623 153.394 28.633 164.797 C 28.641 174.305,28.748 176.433,29.274 177.600 C 30.893 181.195,31.895 187.539,32.428 197.573 C 32.859 205.696,33.240 208.527,34.180 210.600 C 35.170 212.785,36.033 219.425,36.233 226.400 C 36.402 232.300,36.891 235.802,37.797 237.600 C 40.575 243.116,41.212 275.644,38.792 288.400 C 38.521 289.830,38.124 291.220,37.910 291.489 C 37.073 292.540,36.675 295.272,36.407 301.800 C 36.050 310.501,35.338 316.127,34.306 318.400 C 33.285 320.647,32.872 323.613,32.415 332.000 C 31.844 342.465,30.818 348.941,29.280 351.800 C 27.599 354.923,28.536 377.895,30.397 379.200 C 30.831 379.505,31.947 383.174,32.221 385.200 C 32.566 387.749,33.163 389.219,34.411 390.600 C 35.008 391.260,35.799 392.615,36.169 393.611 C 36.538 394.607,37.428 396.047,38.145 396.811 C 39.478 398.230,40.800 400.526,40.800 401.422 C 40.800 401.697,41.463 402.266,42.274 402.687 C 43.131 403.131,44.069 404.069,44.513 404.926 C 44.934 405.737,45.555 406.400,45.893 406.400 C 46.230 406.400,47.396 407.303,48.482 408.407 C 49.568 409.510,51.069 410.669,51.816 410.981 C 52.564 411.293,53.810 412.183,54.585 412.958 C 55.429 413.802,56.784 414.602,57.962 414.952 C 59.995 415.555,61.900 416.604,62.603 417.506 C 62.825 417.790,64.265 418.204,65.803 418.424 C 69.185 418.910,72.130 419.719,75.600 421.113 C 79.656 422.744,96.424 422.880,97.577 421.291 C 98.124 420.537,102.627 419.205,106.746 418.579 C 107.897 418.405,108.989 417.871,109.946 417.014 C 110.746 416.299,112.478 415.345,113.796 414.894 C 115.114 414.442,116.374 413.746,116.596 413.346 C 117.159 412.331,117.974 411.686,119.586 410.978 C 120.348 410.643,121.531 409.791,122.214 409.085 C 122.897 408.378,123.829 407.530,124.284 407.200 C 124.739 406.870,126.914 404.863,129.118 402.740 C 131.744 400.211,133.552 398.786,134.363 398.608 C 135.043 398.459,135.600 398.113,135.600 397.840 C 135.600 397.119,137.660 394.948,138.630 394.648 C 139.086 394.506,139.716 393.808,140.030 393.095 C 140.368 392.328,141.217 391.474,142.113 391.000 C 142.945 390.560,143.726 389.811,143.847 389.336 C 143.977 388.831,144.832 388.080,145.907 387.527 C 146.918 387.006,148.042 386.045,148.404 385.390 C 148.765 384.736,149.433 384.013,149.888 383.784 C 151.192 383.129,151.966 382.381,152.506 381.252 C 152.782 380.678,153.508 379.967,154.119 379.674 C 154.731 379.381,155.629 378.532,156.116 377.788 C 156.602 377.043,157.683 376.126,158.518 375.748 C 159.353 375.371,160.322 374.578,160.672 373.985 C 161.022 373.393,161.843 372.593,162.495 372.207 C 163.148 371.822,164.041 370.899,164.478 370.157 C 164.916 369.415,165.746 368.581,166.322 368.304 C 166.899 368.027,167.786 367.182,168.295 366.427 C 168.803 365.671,169.901 364.666,170.734 364.193 C 171.567 363.719,173.249 362.518,174.470 361.523 C 175.692 360.528,177.121 359.604,177.646 359.469 C 178.170 359.334,178.960 358.677,179.400 358.010 C 179.840 357.342,180.560 356.692,181.000 356.567 C 183.184 355.942,185.226 354.937,185.401 354.400 C 185.609 353.765,187.742 352.402,188.532 352.398 C 189.844 352.392,191.999 351.472,193.186 350.413 C 194.397 349.332,196.826 348.375,199.943 347.751 C 200.586 347.623,201.677 347.002,202.367 346.371 C 203.057 345.741,204.382 345.026,205.311 344.782 C 210.155 343.513,211.172 343.119,211.391 342.427 C 211.655 341.597,214.153 340.551,216.800 340.162 C 217.790 340.017,219.050 339.507,219.600 339.029 C 221.523 337.358,221.957 337.151,225.119 336.396 C 227.493 335.829,228.604 335.335,229.483 334.455 C 230.573 333.366,232.891 332.408,234.451 332.402 C 235.523 332.399,237.909 331.263,238.473 330.488 C 239.057 329.685,241.741 328.595,244.200 328.162 C 245.112 328.001,246.450 327.326,247.312 326.591 C 248.361 325.697,249.709 325.088,251.712 324.602 C 253.378 324.199,255.192 323.446,256.000 322.823 C 257.575 321.608,259.114 320.952,261.260 320.579 C 262.063 320.440,263.656 319.623,264.800 318.763 C 265.944 317.903,267.143 317.200,267.465 317.200 C 268.937 317.200,272.247 315.746,273.463 314.565 C 274.200 313.849,275.359 313.141,276.036 312.992 C 277.418 312.689,279.359 311.002,285.696 304.600 C 291.973 298.259,292.767 297.340,293.581 295.475 C 293.983 294.554,294.668 293.429,295.102 292.975 C 296.088 291.945,297.062 289.832,297.395 288.000 C 297.778 285.899,298.467 284.312,299.471 283.219 C 299.966 282.680,300.460 281.780,300.567 281.219 C 302.419 271.540,301.947 248.289,299.865 246.669 C 299.024 246.014,297.600 243.332,297.600 242.402 C 297.600 240.915,296.314 237.790,295.213 236.600 C 294.603 235.940,293.786 234.545,293.397 233.500 C 293.009 232.455,292.530 231.600,292.332 231.600 C 291.852 231.600,289.600 229.276,289.600 228.781 C 289.600 228.089,280.783 219.600,280.064 219.600 C 279.861 219.600,279.219 218.976,278.637 218.213 C 277.969 217.337,276.985 216.648,275.967 216.343 C 275.081 216.077,273.780 215.289,273.078 214.592 C 272.161 213.682,271.008 213.119,269.000 212.601 C 267.460 212.203,265.570 211.391,264.800 210.797 C 262.933 209.355,262.100 208.960,260.214 208.618 C 258.388 208.288,256.637 207.452,255.446 206.342 C 254.989 205.917,254.162 205.471,253.608 205.351 C 250.790 204.741,247.803 203.510,246.617 202.469 C 245.741 201.700,244.634 201.206,243.355 201.014 C 241.116 200.678,238.685 199.538,237.926 198.468 C 237.637 198.060,236.860 197.609,236.200 197.466 C 235.540 197.324,234.118 197.025,233.040 196.802 C 231.810 196.549,230.433 195.868,229.342 194.974 C 228.343 194.155,226.967 193.449,226.102 193.312 C 224.138 193.000,221.441 191.841,220.508 190.908 C 219.565 189.965,217.894 189.323,215.587 189.017 C 213.502 188.741,211.200 187.485,211.200 186.624 C 211.200 186.256,210.640 185.944,209.700 185.788 C 208.875 185.651,207.750 185.388,207.200 185.202 C 206.650 185.017,205.690 184.753,205.066 184.616 C 204.442 184.480,203.542 183.993,203.066 183.536 C 201.983 182.495,199.281 181.220,198.133 181.209 C 196.936 181.197,193.908 179.853,193.226 179.032 C 192.559 178.228,190.755 177.430,188.765 177.057 C 187.976 176.909,186.587 176.152,185.678 175.374 C 184.770 174.597,183.213 173.683,182.219 173.345 C 181.225 173.006,179.984 172.221,179.463 171.602 C 178.941 170.982,177.742 170.081,176.798 169.599 C 175.854 169.117,174.433 168.092,173.641 167.321 C 172.848 166.549,171.543 165.582,170.740 165.172 C 169.937 164.761,168.914 163.834,168.467 163.112 C 168.019 162.391,167.014 161.459,166.235 161.042 C 165.455 160.624,164.697 159.904,164.551 159.442 C 164.255 158.503,162.914 157.201,162.239 157.197 C 161.997 157.196,161.369 156.562,160.843 155.789 C 160.316 155.016,159.292 154.101,158.566 153.757 C 157.841 153.413,156.933 152.652,156.550 152.066 C 155.743 150.831,155.267 150.368,154.183 149.762 C 153.752 149.522,153.004 148.744,152.521 148.034 C 152.037 147.324,150.957 146.246,150.121 145.639 C 149.284 145.032,148.356 144.075,148.057 143.513 C 147.757 142.949,146.953 142.330,146.264 142.133 C 145.542 141.925,144.627 141.200,144.098 140.414 C 143.593 139.665,142.616 138.780,141.926 138.445 C 141.148 138.069,140.430 137.268,140.036 136.339 C 139.644 135.414,139.051 134.752,138.489 134.610 C 137.988 134.483,137.090 133.694,136.494 132.857 C 135.898 132.021,134.698 130.990,133.826 130.568 C 132.954 130.146,130.673 128.250,128.758 126.356 C 126.842 124.461,124.673 122.535,123.937 122.075 C 123.202 121.614,122.115 120.621,121.522 119.868 C 120.929 119.114,119.979 118.381,119.412 118.239 C 118.337 117.969,116.800 116.670,116.800 116.031 C 116.800 115.828,116.125 115.452,115.300 115.196 C 112.802 114.420,110.494 113.266,109.932 112.513 C 109.185 111.512,107.728 110.897,105.400 110.600 C 102.768 110.265,99.878 109.410,97.625 108.299 C 94.989 107.000,79.088 106.811,76.747 108.051 " stroke="none" fill="#f4e424" fill-rule="evenodd"></path><path id="path2" d="M70.519 105.234 C 69.772 105.455,68.942 106.113,68.529 106.813 C 67.696 108.222,66.022 108.795,62.726 108.798 C 59.590 108.801,58.504 109.288,58.093 110.875 C 57.766 112.137,57.657 112.196,54.918 112.608 C 51.751 113.084,50.800 113.648,50.800 115.049 C 50.800 115.628,50.565 116.000,50.200 116.000 C 49.870 116.000,49.600 116.180,49.600 116.400 C 49.600 116.620,49.096 116.800,48.480 116.800 C 47.055 116.800,46.400 117.459,46.400 118.894 C 46.400 119.851,46.129 120.145,44.666 120.772 C 43.440 121.297,42.737 121.925,42.268 122.914 C 41.832 123.832,41.227 124.407,40.504 124.588 C 38.961 124.976,38.400 125.540,38.400 126.702 C 38.400 127.718,37.088 129.200,36.188 129.200 C 35.280 129.200,34.626 130.480,34.197 133.099 C 33.791 135.584,33.707 135.725,32.386 136.152 C 31.004 136.599,30.998 136.611,30.387 140.339 C 29.795 143.952,29.731 144.097,28.484 144.621 C 27.774 144.920,27.039 145.577,26.851 146.082 C 26.589 146.782,25.867 164.504,26.015 166.600 C 26.031 166.820,26.192 171.950,26.374 178.000 C 26.779 191.461,27.048 192.949,29.207 193.669 C 29.817 193.872,30.362 200.363,30.410 208.000 C 30.476 218.377,30.871 220.542,32.838 221.286 C 33.724 221.621,34.121 226.103,34.229 237.000 C 34.324 246.638,34.812 249.707,36.546 251.576 C 39.042 254.265,38.933 274.741,36.398 279.400 C 34.535 282.822,34.399 283.758,34.239 294.218 C 34.058 306.135,33.846 307.926,32.566 308.413 C 30.898 309.047,30.740 310.013,30.384 321.743 C 30.010 334.066,29.853 335.436,28.751 336.026 C 26.992 336.968,26.782 338.255,26.390 350.515 C 26.185 356.942,26.002 362.470,25.984 362.800 C 25.965 363.130,26.100 367.939,26.282 373.488 C 26.636 384.289,26.741 384.746,28.857 384.787 C 29.676 384.803,29.859 385.275,30.195 388.237 C 30.637 392.131,31.086 393.148,32.528 393.521 C 33.675 393.818,33.824 394.037,34.074 395.782 C 34.486 398.661,35.151 399.973,36.351 400.271 C 37.607 400.584,38.370 401.483,38.387 402.671 C 38.404 403.807,39.421 404.800,40.568 404.800 C 41.259 404.800,41.630 405.186,42.107 406.401 C 42.612 407.686,43.096 408.155,44.568 408.786 C 46.021 409.409,46.400 409.771,46.400 410.537 C 46.400 411.689,46.898 412.134,48.917 412.785 C 50.103 413.167,50.485 413.526,50.666 414.428 C 50.993 416.066,51.632 416.444,54.485 416.690 C 57.322 416.934,58.000 417.302,58.000 418.600 C 58.000 420.138,59.053 420.586,63.187 420.806 L 67.054 421.013 68.665 422.706 L 70.276 424.400 82.638 424.494 C 99.302 424.622,100.780 424.616,102.400 424.416 C 103.903 424.230,105.200 423.382,105.200 422.584 C 105.200 421.450,107.143 420.782,110.267 420.842 C 113.593 420.907,114.400 420.456,114.400 418.538 C 114.400 417.505,115.133 417.026,117.318 416.631 C 118.445 416.428,118.959 416.078,119.310 415.278 C 119.921 413.886,120.143 413.742,122.962 412.903 C 125.054 412.280,125.403 412.024,126.018 410.656 C 126.522 409.534,127.162 408.910,128.356 408.375 C 129.428 407.895,130.000 407.380,130.000 406.895 C 130.000 405.925,131.433 404.400,132.345 404.400 C 132.763 404.400,133.386 403.780,133.845 402.907 C 134.440 401.777,135.061 401.265,136.401 400.800 C 137.893 400.281,138.212 399.979,138.439 398.872 C 138.746 397.369,138.638 397.486,140.173 396.984 C 140.924 396.738,141.644 396.036,142.173 395.035 C 142.628 394.174,143.270 393.348,143.600 393.198 C 145.392 392.386,145.786 392.040,146.136 390.971 C 146.587 389.597,147.061 389.214,148.329 389.206 C 149.453 389.199,150.274 388.440,150.611 387.097 C 150.782 386.418,151.353 385.904,152.387 385.498 C 153.551 385.041,154.039 384.548,154.447 383.421 C 154.844 382.322,155.263 381.887,156.082 381.724 C 157.369 381.466,157.945 380.866,158.347 379.362 C 158.575 378.509,159.024 378.159,160.419 377.749 C 162.342 377.182,162.469 377.076,167.711 371.641 C 169.642 369.638,171.385 368.000,171.584 368.000 C 171.783 368.000,172.047 367.683,172.170 367.296 C 172.372 366.660,175.035 365.200,175.995 365.200 C 176.209 365.200,176.751 364.480,177.200 363.600 C 177.676 362.667,178.304 361.999,178.708 361.999 C 179.897 361.996,181.931 360.499,182.069 359.525 C 182.183 358.718,182.582 358.524,185.200 358.000 C 187.990 357.442,188.253 357.300,188.967 355.968 C 189.692 354.614,189.901 354.507,192.767 354.018 C 196.176 353.437,197.600 352.734,197.600 351.634 C 197.600 350.829,198.176 350.612,201.400 350.204 C 204.560 349.805,206.767 348.870,207.031 347.821 C 207.284 346.809,208.870 346.192,212.171 345.819 C 214.154 345.594,215.600 344.723,215.600 343.752 C 215.600 342.997,216.922 342.400,218.597 342.400 C 221.562 342.400,223.496 341.627,224.191 340.162 C 224.888 338.693,225.204 338.571,229.200 338.228 C 231.831 338.003,233.200 337.157,233.200 335.756 C 233.200 335.450,233.277 335.200,233.371 335.200 C 233.464 335.200,235.368 334.840,237.600 334.400 C 239.832 333.960,241.715 333.600,241.784 333.600 C 241.853 333.600,242.197 332.993,242.549 332.251 C 243.250 330.773,244.260 330.400,247.561 330.400 C 249.506 330.400,251.200 329.559,251.200 328.593 C 251.200 327.181,252.858 326.400,255.853 326.400 C 258.894 326.400,260.000 325.748,260.000 323.954 C 260.000 323.065,260.810 322.800,263.533 322.799 C 266.018 322.797,268.149 321.820,268.572 320.489 C 268.812 319.731,270.183 319.168,273.400 318.505 C 274.683 318.241,275.159 317.880,275.800 316.689 C 276.283 315.792,276.896 315.202,277.346 315.201 C 279.145 315.198,281.980 313.814,282.435 312.716 C 282.686 312.109,283.741 311.090,284.779 310.451 C 285.903 309.759,286.872 308.792,287.176 308.058 C 287.456 307.381,288.072 306.709,288.543 306.566 C 289.786 306.188,290.800 305.187,290.800 304.338 C 290.800 303.932,290.968 303.600,291.173 303.600 C 291.378 303.600,291.660 303.240,291.800 302.800 C 291.940 302.360,292.374 302.000,292.765 302.000 C 293.854 302.000,296.000 298.701,296.000 297.026 C 296.000 296.725,296.612 296.118,297.360 295.677 C 298.242 295.156,298.798 294.474,298.940 293.737 C 300.070 287.904,299.999 288.097,301.191 287.604 C 302.665 286.993,302.713 286.846,303.215 281.276 C 303.712 275.781,303.841 275.257,304.919 274.384 C 307.697 272.135,307.601 257.856,304.789 255.116 C 303.770 254.122,303.656 253.705,303.420 250.116 C 303.048 244.457,302.807 243.195,301.958 242.458 C 301.541 242.096,300.860 241.505,300.444 241.144 C 299.939 240.706,299.595 239.680,299.406 238.049 C 299.097 235.392,298.036 233.600,296.771 233.600 C 296.309 233.600,296.000 233.325,296.000 232.913 C 296.000 230.782,293.984 227.200,292.784 227.200 C 292.055 227.200,290.991 225.865,290.745 224.642 C 290.665 224.243,289.880 223.515,289.000 223.023 C 288.120 222.531,287.338 221.813,287.263 221.426 C 287.071 220.437,285.937 219.202,285.211 219.191 C 284.287 219.178,282.985 217.947,282.447 216.577 C 281.986 215.403,281.023 214.915,276.900 213.765 C 276.625 213.688,276.400 213.270,276.400 212.835 C 276.400 211.890,274.971 210.800,273.731 210.800 C 271.121 210.800,269.000 209.962,268.368 208.681 C 267.655 207.236,265.636 206.489,262.297 206.432 C 260.468 206.401,260.369 206.339,259.769 204.839 C 259.055 203.055,258.480 202.813,254.929 202.805 C 252.410 202.800,250.800 201.770,250.800 200.165 C 250.800 199.525,248.387 198.807,246.200 198.797 C 243.729 198.785,243.013 198.458,242.217 196.980 C 241.643 195.913,241.166 195.568,240.041 195.402 C 239.248 195.286,237.832 195.013,236.894 194.795 C 235.956 194.578,234.741 194.400,234.194 194.400 C 233.612 194.400,233.200 194.170,233.200 193.844 C 233.200 192.230,231.744 191.407,228.164 191.000 L 224.649 190.600 224.309 189.284 C 223.916 187.762,222.814 187.200,220.224 187.200 C 217.344 187.200,215.971 186.775,215.587 185.765 C 215.058 184.376,213.614 183.631,210.896 183.347 C 208.712 183.119,208.257 182.907,206.697 181.391 C 205.031 179.771,204.776 179.667,201.314 179.194 C 197.816 178.716,197.671 178.656,197.457 177.585 C 197.208 176.338,196.075 175.844,192.495 175.420 C 189.888 175.112,189.200 174.857,189.200 174.202 C 189.200 172.845,187.698 171.855,184.959 171.409 C 182.640 171.031,182.180 170.825,182.078 170.121 C 181.920 169.044,180.958 168.217,179.200 167.648 C 178.130 167.301,177.642 166.819,177.130 165.597 C 176.585 164.300,176.259 164.000,175.390 164.000 C 174.371 164.000,172.000 162.012,172.000 161.158 C 172.000 160.961,171.680 160.800,171.289 160.800 C 170.898 160.800,170.277 160.485,169.909 160.100 C 169.541 159.715,169.033 159.193,168.780 158.940 C 168.527 158.687,167.618 157.742,166.760 156.840 C 165.902 155.938,165.020 155.200,164.800 155.200 C 164.580 155.200,164.400 154.970,164.400 154.689 C 164.400 153.773,161.877 151.937,160.234 151.657 C 158.822 151.416,158.597 151.225,158.361 150.069 C 158.062 148.607,157.031 147.632,155.764 147.613 C 155.148 147.603,154.789 147.179,154.399 145.997 C 153.959 144.662,153.617 144.317,152.365 143.942 C 151.259 143.611,150.790 143.214,150.598 142.448 C 150.219 140.941,149.696 140.454,148.140 140.162 C 147.074 139.962,146.606 139.582,146.080 138.488 C 145.413 137.100,144.937 136.688,143.468 136.229 C 143.065 136.103,142.449 135.270,142.098 134.376 C 141.613 133.142,141.191 132.698,140.339 132.528 C 139.019 132.264,138.527 131.751,138.338 130.441 C 138.196 129.457,138.054 129.347,135.531 128.270 C 134.542 127.847,134.018 127.341,133.931 126.721 C 133.851 126.156,133.299 125.550,132.505 125.153 C 130.588 124.195,130.122 123.709,129.858 122.391 C 129.716 121.680,129.368 121.200,128.996 121.200 C 127.928 121.200,126.386 119.940,125.832 118.615 C 125.442 117.681,124.830 117.167,123.502 116.660 C 122.512 116.282,120.951 115.259,120.034 114.386 C 118.845 113.255,118.019 112.800,117.157 112.800 C 115.694 112.800,114.400 112.164,114.400 111.444 C 114.400 109.969,112.490 108.800,110.079 108.800 C 107.159 108.800,105.200 108.167,105.200 107.223 C 105.200 105.058,104.803 105.006,87.658 104.927 C 78.595 104.886,71.251 105.017,70.519 105.234 M101.523 106.618 C 102.225 107.033,102.800 107.479,102.800 107.609 C 102.800 108.020,105.771 109.177,107.826 109.568 C 110.519 110.079,111.977 110.676,112.246 111.376 C 112.538 112.136,114.754 113.438,116.355 113.790 C 117.091 113.952,118.025 114.611,118.616 115.385 C 119.173 116.116,120.124 116.805,120.747 116.929 C 121.366 117.053,122.761 118.020,123.848 119.077 C 124.934 120.135,126.492 121.450,127.309 122.000 C 128.126 122.550,128.796 123.140,128.797 123.311 C 128.802 123.887,134.402 128.953,135.581 129.449 C 136.223 129.719,137.039 130.501,137.394 131.187 C 137.748 131.874,138.568 132.757,139.214 133.150 C 139.860 133.543,140.948 134.636,141.631 135.579 C 142.314 136.522,143.210 137.382,143.622 137.490 C 144.034 137.598,144.737 138.305,145.184 139.063 C 145.648 139.849,146.603 140.693,147.410 141.030 C 148.188 141.355,149.156 142.167,149.562 142.834 C 149.968 143.501,150.854 144.351,151.532 144.723 C 152.210 145.096,153.183 146.027,153.694 146.794 C 154.206 147.561,155.069 148.407,155.612 148.675 C 156.155 148.942,156.880 149.665,157.222 150.280 C 157.564 150.896,158.669 151.841,159.678 152.380 C 160.687 152.920,161.757 153.763,162.056 154.254 C 162.355 154.745,163.230 155.571,164.000 156.089 C 164.770 156.606,165.629 157.506,165.909 158.088 C 166.189 158.670,167.022 159.519,167.760 159.975 C 168.498 160.432,169.619 161.389,170.251 162.102 C 170.883 162.816,172.249 163.843,173.287 164.385 C 174.326 164.926,175.536 165.858,175.977 166.454 C 176.418 167.050,177.683 168.031,178.789 168.633 C 179.895 169.235,180.800 169.964,180.800 170.253 C 180.800 170.888,182.390 171.752,184.700 172.373 C 185.748 172.655,187.001 173.438,187.968 174.415 C 188.929 175.386,189.909 176.000,190.497 176.000 C 192.036 176.000,195.163 177.212,195.737 178.031 C 196.381 178.951,198.393 179.813,200.800 180.201 C 202.660 180.500,204.800 181.520,204.800 182.107 C 204.800 182.557,207.096 183.487,210.112 184.260 C 211.474 184.609,212.861 185.203,213.194 185.580 C 214.434 186.984,216.047 187.681,218.876 188.036 C 221.547 188.371,221.900 188.529,223.216 189.968 C 224.636 191.521,224.799 191.585,229.014 192.221 C 229.709 192.326,230.777 192.986,231.513 193.767 C 232.428 194.737,233.288 195.205,234.499 195.392 C 237.147 195.801,239.908 196.784,240.145 197.402 C 240.440 198.171,243.451 199.573,245.398 199.848 C 247.535 200.150,249.290 200.975,249.892 201.959 C 250.424 202.829,253.776 203.996,255.773 204.006 C 257.217 204.013,257.722 204.298,258.326 205.448 C 258.888 206.516,261.132 207.600,262.780 207.600 C 264.288 207.600,266.315 208.584,267.245 209.767 C 267.678 210.316,268.979 210.898,270.860 211.382 C 273.089 211.956,274.090 212.450,275.000 213.423 C 275.660 214.129,276.798 214.835,277.529 214.992 C 278.333 215.164,279.598 216.018,280.729 217.153 C 281.758 218.185,283.241 219.422,284.025 219.901 C 284.809 220.381,285.679 221.200,285.958 221.722 C 286.238 222.244,286.837 222.925,287.290 223.236 C 289.058 224.446,294.648 231.341,295.001 232.745 C 295.142 233.307,295.855 234.429,296.587 235.238 C 297.726 236.499,299.200 240.059,299.200 241.548 C 299.200 241.781,299.733 242.579,300.384 243.321 C 301.707 244.828,302.187 246.536,302.767 251.800 C 303.249 256.181,303.858 259.147,304.411 259.813 C 304.934 260.444,304.974 268.708,304.456 269.334 C 303.963 269.930,303.283 273.270,302.773 277.600 C 302.143 282.948,301.606 284.894,300.437 286.063 C 299.736 286.763,299.117 288.116,298.619 290.033 C 298.076 292.128,297.498 293.331,296.550 294.335 C 295.827 295.102,295.127 296.220,294.996 296.820 C 294.864 297.419,293.821 298.945,292.678 300.211 C 291.535 301.477,290.330 302.909,290.000 303.394 C 289.253 304.492,283.649 309.999,283.275 310.003 C 283.124 310.005,282.048 310.898,280.885 311.988 C 279.564 313.225,278.262 314.065,277.416 314.223 C 276.549 314.386,275.557 315.039,274.660 316.039 C 273.889 316.897,272.964 317.600,272.604 317.600 C 271.110 317.600,267.898 318.980,266.886 320.057 C 265.778 321.236,263.844 321.994,261.932 321.998 C 260.621 322.001,258.471 323.173,258.191 324.039 C 257.955 324.771,256.344 325.600,255.158 325.600 C 253.168 325.600,250.706 326.569,249.531 327.814 C 248.614 328.787,247.818 329.192,246.447 329.386 C 243.756 329.766,241.277 330.785,240.043 332.018 C 239.048 333.014,236.063 334.000,234.045 334.000 C 233.652 334.000,232.609 334.686,231.727 335.525 C 230.374 336.812,229.678 337.129,227.262 337.561 C 224.956 337.973,224.043 338.367,222.570 339.584 C 221.215 340.704,220.249 341.154,218.841 341.321 C 216.562 341.591,214.050 342.692,213.129 343.826 C 212.707 344.345,211.327 344.933,209.405 345.412 C 207.231 345.953,205.940 346.538,204.923 347.443 C 204.049 348.221,202.863 348.816,201.870 348.974 C 199.170 349.406,196.397 350.458,195.999 351.202 C 195.561 352.021,193.313 352.985,190.912 353.385 C 189.712 353.585,188.888 354.049,188.060 354.993 C 187.267 355.896,186.054 356.603,184.256 357.211 C 182.311 357.868,181.347 358.457,180.588 359.451 C 180.022 360.193,179.223 360.800,178.812 360.800 C 178.400 360.800,177.285 361.607,176.332 362.593 C 175.379 363.580,174.375 364.390,174.100 364.393 C 173.825 364.397,173.600 364.560,173.600 364.757 C 173.600 364.953,173.143 365.228,172.585 365.368 C 172.027 365.508,169.726 367.508,167.472 369.811 C 165.218 372.115,163.154 374.000,162.887 374.000 C 162.619 374.000,162.400 374.209,162.400 374.464 C 162.400 375.156,159.964 377.200,159.140 377.200 C 158.723 377.200,158.043 377.869,157.512 378.800 C 157.010 379.681,156.266 380.509,155.857 380.641 C 154.860 380.963,153.600 382.072,153.600 382.627 C 153.600 383.169,152.329 384.362,151.097 384.976 C 150.604 385.222,149.957 385.930,149.660 386.549 C 149.364 387.168,148.554 387.924,147.860 388.230 C 146.147 388.987,145.364 389.652,145.061 390.609 C 144.920 391.053,144.210 391.736,143.483 392.128 C 142.756 392.519,141.846 393.416,141.461 394.120 C 141.076 394.824,140.062 395.833,139.208 396.363 C 138.354 396.893,137.558 397.711,137.440 398.182 C 137.322 398.653,136.462 399.468,135.528 399.992 C 134.595 400.517,132.259 402.488,130.338 404.373 C 124.623 409.981,122.460 411.779,120.939 412.183 C 120.012 412.429,119.199 413.023,118.657 413.850 C 118.083 414.725,117.050 415.448,115.419 416.117 C 114.102 416.658,112.839 417.433,112.612 417.841 C 111.910 419.103,111.126 419.494,108.808 419.736 C 106.192 420.009,103.922 420.878,102.745 422.055 C 100.281 424.519,73.411 424.668,70.974 422.231 C 69.701 420.958,66.691 419.932,63.580 419.711 C 60.700 419.507,60.520 419.435,59.692 418.173 C 59.022 417.151,58.297 416.692,56.512 416.162 C 55.153 415.759,53.752 415.010,53.114 414.347 C 52.516 413.726,51.117 412.726,50.004 412.125 C 48.852 411.503,47.644 410.463,47.201 409.713 C 46.773 408.987,45.923 408.172,45.312 407.901 C 43.902 407.278,43.372 406.772,43.044 405.740 C 42.901 405.287,42.140 404.576,41.354 404.158 C 40.443 403.675,39.715 402.880,39.345 401.966 C 39.027 401.178,38.064 399.868,37.206 399.055 C 36.348 398.242,35.531 397.177,35.391 396.688 C 34.655 394.132,33.833 392.400,33.355 392.400 C 32.440 392.400,31.577 390.596,31.136 387.758 C 30.711 385.029,30.019 383.518,28.683 382.400 C 26.245 380.359,26.487 349.448,29.007 341.200 C 29.511 339.550,30.129 337.480,30.380 336.600 C 30.632 335.720,31.002 331.040,31.203 326.200 C 31.622 316.144,32.155 312.170,33.248 310.973 C 34.228 309.899,35.189 302.444,35.205 295.800 C 35.219 289.618,35.745 286.090,37.070 283.290 C 39.408 278.347,39.469 251.266,37.153 246.705 C 35.931 244.300,35.571 242.205,35.384 236.400 C 35.273 232.990,35.010 228.760,34.798 227.000 C 34.586 225.240,34.345 222.843,34.262 221.674 C 34.170 220.370,33.803 219.129,33.311 218.464 C 32.160 216.908,31.274 210.409,31.032 201.748 C 30.846 195.056,30.384 191.727,29.211 188.600 C 27.284 183.465,26.540 170.575,27.280 155.179 C 27.583 148.868,27.829 147.807,29.340 146.296 C 30.383 145.254,31.194 142.976,31.198 141.080 C 31.201 139.588,32.128 137.870,33.369 137.057 C 34.051 136.610,34.596 135.649,35.046 134.099 C 35.488 132.581,36.151 131.397,37.007 130.602 C 37.718 129.941,38.638 128.736,39.050 127.925 C 39.463 127.114,40.430 126.027,41.200 125.510 C 41.970 124.993,42.835 124.081,43.122 123.484 C 43.410 122.886,44.220 122.101,44.922 121.739 C 46.343 121.008,47.600 119.726,47.600 119.010 C 47.600 118.752,48.455 118.119,49.500 117.603 C 50.545 117.087,51.975 116.063,52.679 115.327 C 53.395 114.577,54.538 113.878,55.279 113.737 C 57.072 113.394,59.451 112.166,59.730 111.438 C 60.103 110.466,62.026 109.727,64.835 109.477 C 67.876 109.206,69.347 108.662,70.924 107.225 C 72.862 105.459,98.693 104.947,101.523 106.618 " stroke="none" fill="#9c9c54" fill-rule="evenodd"></path><path id="path3" d="M83.500 105.898 C 85.755 105.970,89.445 105.970,91.700 105.898 C 93.955 105.827,92.110 105.769,87.600 105.769 C 83.090 105.769,81.245 105.827,83.500 105.898 M71.114 107.127 C 69.886 108.181,68.502 108.867,66.600 109.364 C 66.160 109.479,66.573 109.486,67.517 109.379 C 69.334 109.174,70.432 108.686,71.898 107.432 C 72.487 106.929,73.726 106.570,75.498 106.389 L 78.200 106.114 75.314 106.057 C 72.685 106.005,72.311 106.100,71.114 107.127 M98.382 106.296 C 99.143 106.388,100.223 106.784,100.782 107.175 C 102.326 108.256,104.797 109.336,105.079 109.054 C 105.217 108.916,104.761 108.605,104.065 108.363 C 103.369 108.120,102.800 107.798,102.800 107.647 C 102.800 106.961,100.346 106.005,98.738 106.064 C 97.138 106.123,97.110 106.141,98.382 106.296 M60.900 110.396 C 60.185 110.832,59.600 111.367,59.600 111.585 C 59.600 111.803,58.925 112.337,58.100 112.773 C 57.275 113.208,56.810 113.573,57.068 113.582 C 57.883 113.613,59.993 112.227,60.225 111.509 C 60.422 110.898,61.269 110.551,64.200 109.877 C 64.664 109.770,64.412 109.674,63.600 109.648 C 62.830 109.623,61.615 109.960,60.900 110.396 M107.800 110.000 C 108.240 110.189,108.998 110.356,109.484 110.372 C 109.970 110.387,110.780 110.818,111.284 111.328 C 112.423 112.483,114.402 113.731,114.669 113.464 C 114.779 113.355,114.448 113.047,113.934 112.781 C 113.420 112.515,112.640 111.891,112.200 111.393 C 111.353 110.436,109.241 109.581,107.840 109.628 C 107.017 109.656,107.016 109.663,107.800 110.000 M54.415 113.893 C 54.093 114.020,53.283 114.695,52.615 115.394 C 51.947 116.093,50.545 117.087,49.500 117.603 C 47.738 118.474,47.055 119.200,48.000 119.200 C 48.220 119.200,48.400 119.062,48.400 118.894 C 48.400 118.726,49.310 118.157,50.423 117.628 C 51.535 117.100,52.777 116.246,53.183 115.731 C 53.588 115.216,54.433 114.527,55.060 114.200 C 56.143 113.635,55.658 113.404,54.415 113.893 M116.260 114.179 C 116.953 114.481,117.673 114.969,117.860 115.264 C 118.047 115.559,118.553 116.070,118.984 116.400 C 119.651 116.910,119.629 116.801,118.837 115.672 C 117.967 114.432,116.573 113.579,115.474 113.616 C 115.213 113.624,115.567 113.878,116.260 114.179 M121.320 117.638 C 122.156 118.079,122.928 118.669,123.036 118.950 C 123.144 119.230,124.159 120.166,125.293 121.030 C 126.427 121.893,128.844 124.085,130.664 125.900 C 132.484 127.715,134.114 129.198,134.287 129.195 C 134.459 129.192,133.295 127.933,131.700 126.398 C 130.105 124.862,128.799 123.470,128.797 123.303 C 128.796 123.136,128.122 122.550,127.301 122.000 C 126.479 121.450,125.181 120.370,124.417 119.600 C 122.661 117.832,121.171 116.801,120.400 116.820 C 120.070 116.829,120.484 117.196,121.320 117.638 M46.793 120.371 C 46.467 120.766,45.625 121.384,44.922 121.743 C 44.220 122.103,43.410 122.886,43.122 123.484 C 42.835 124.081,41.970 124.993,41.200 125.509 C 40.430 126.026,39.395 127.242,38.899 128.211 C 38.404 129.180,37.641 130.164,37.203 130.398 C 36.268 130.899,35.067 133.048,35.344 133.727 C 35.451 133.988,35.551 133.899,35.568 133.528 C 35.586 133.159,36.253 132.169,37.052 131.328 C 37.850 130.488,38.866 129.109,39.310 128.265 C 39.754 127.421,40.707 126.344,41.428 125.872 C 42.149 125.399,43.036 124.508,43.401 123.891 C 43.765 123.275,44.753 122.334,45.598 121.801 C 47.094 120.857,47.830 120.096,47.533 119.800 C 47.453 119.719,47.120 119.977,46.793 120.371 M135.400 129.796 C 135.840 130.110,136.323 130.510,136.473 130.684 C 137.971 132.417,146.760 141.200,146.997 141.200 C 147.168 141.200,146.844 140.835,146.278 140.390 C 145.711 139.944,145.131 139.214,144.989 138.767 C 144.848 138.320,144.303 137.791,143.779 137.592 C 143.255 137.393,142.278 136.473,141.608 135.547 C 140.937 134.622,139.860 133.543,139.214 133.150 C 138.568 132.757,137.758 131.893,137.415 131.230 C 137.072 130.566,136.445 129.838,136.022 129.612 C 134.894 129.008,134.471 129.134,135.400 129.796 M34.642 135.376 C 34.502 135.934,33.931 136.689,33.373 137.054 C 32.109 137.882,31.190 139.610,31.232 141.080 L 31.263 142.200 31.597 141.200 C 31.780 140.650,32.036 139.717,32.166 139.127 C 32.296 138.536,32.735 137.948,33.142 137.818 C 33.933 137.567,35.523 134.990,35.130 134.597 C 35.002 134.468,34.782 134.819,34.642 135.376 M147.933 141.476 C 148.226 141.593,148.810 142.254,149.231 142.944 C 149.652 143.635,149.998 143.999,149.999 143.754 C 150.001 143.082,148.409 141.195,147.871 141.232 C 147.572 141.252,147.594 141.341,147.933 141.476 M30.662 143.991 C 30.531 144.647,29.882 145.749,29.220 146.442 C 28.128 147.585,27.893 148.250,27.440 151.488 C 27.372 151.976,27.470 152.281,27.658 152.164 C 27.846 152.048,28.000 151.468,28.001 150.876 C 28.002 150.284,28.641 148.740,29.422 147.445 C 30.703 145.321,31.614 142.800,31.100 142.800 C 30.990 142.800,30.793 143.336,30.662 143.991 M150.800 144.800 C 150.800 145.020,151.064 145.200,151.386 145.200 C 151.708 145.200,152.411 145.847,152.948 146.638 C 153.485 147.428,154.572 148.515,155.362 149.052 C 156.153 149.589,156.800 150.195,156.800 150.399 C 156.800 150.998,158.495 152.418,159.936 153.026 C 160.671 153.336,161.359 153.921,161.465 154.327 C 161.571 154.733,162.030 155.321,162.485 155.633 C 164.351 156.914,165.571 158.078,165.799 158.797 C 165.932 159.216,166.369 159.663,166.771 159.791 C 167.632 160.064,170.400 162.673,170.400 163.212 C 170.400 163.417,170.850 163.698,171.400 163.836 C 171.950 163.974,172.400 164.235,172.400 164.416 C 172.400 164.598,172.805 164.872,173.300 165.026 C 173.795 165.180,174.830 165.961,175.600 166.761 C 176.370 167.562,177.535 168.483,178.188 168.808 C 178.841 169.134,180.037 170.056,180.846 170.858 C 181.822 171.826,182.842 172.404,183.884 172.580 C 184.928 172.757,186.013 173.373,187.127 174.423 C 189.310 176.479,190.005 176.473,187.968 174.415 C 187.001 173.438,185.748 172.655,184.700 172.373 C 182.390 171.752,180.800 170.888,180.800 170.253 C 180.800 169.964,179.895 169.235,178.789 168.633 C 177.683 168.031,176.418 167.050,175.977 166.454 C 175.536 165.858,174.326 164.926,173.287 164.385 C 172.249 163.843,170.883 162.816,170.251 162.102 C 169.619 161.389,168.498 160.432,167.760 159.975 C 167.022 159.519,166.189 158.670,165.909 158.088 C 165.629 157.506,164.770 156.606,164.000 156.089 C 163.230 155.571,162.355 154.745,162.056 154.254 C 161.757 153.763,160.678 152.920,159.657 152.380 C 158.609 151.826,157.570 150.912,157.268 150.278 C 156.975 149.661,156.316 148.996,155.804 148.802 C 155.292 148.607,154.542 147.965,154.137 147.376 C 152.617 145.166,150.800 143.763,150.800 144.800 M27.066 160.300 C 26.931 164.205,26.955 169.380,27.118 171.800 C 27.349 175.244,27.424 173.701,27.459 164.700 C 27.484 158.375,27.460 153.200,27.407 153.200 C 27.354 153.200,27.200 156.395,27.066 160.300 M190.800 176.397 C 191.350 176.580,192.300 176.840,192.910 176.975 C 193.521 177.110,194.366 177.566,194.789 177.989 C 195.700 178.900,197.747 180.006,198.480 179.984 C 198.766 179.976,198.384 179.701,197.631 179.375 C 196.878 179.048,196.025 178.442,195.736 178.029 C 195.171 177.224,191.991 175.980,190.629 176.032 C 189.909 176.059,189.931 176.107,190.800 176.397 M27.807 181.400 C 27.947 184.633,28.215 185.991,29.231 188.600 C 29.402 189.040,29.765 190.390,30.037 191.600 C 30.308 192.810,30.607 193.571,30.701 193.291 C 30.795 193.012,30.676 192.220,30.436 191.532 C 30.196 190.844,29.996 189.542,29.991 188.640 C 29.986 187.738,29.601 186.190,29.135 185.200 C 28.669 184.210,28.145 182.140,27.970 180.600 C 27.661 177.879,27.656 177.901,27.807 181.400 M201.500 180.810 C 202.875 181.261,204.000 181.789,204.000 181.985 C 204.000 182.458,208.150 184.408,209.075 184.371 C 209.474 184.355,208.810 183.993,207.600 183.566 C 206.390 183.139,205.220 182.554,205.000 182.265 C 204.244 181.273,202.597 180.477,200.800 180.234 C 199.106 180.006,199.148 180.040,201.500 180.810 M210.800 184.691 C 211.130 184.794,211.850 185.290,212.400 185.793 C 213.547 186.843,215.715 188.007,216.480 187.984 C 216.766 187.976,216.444 187.727,215.765 187.431 C 215.085 187.135,214.055 186.419,213.475 185.839 C 212.895 185.259,211.921 184.721,211.310 184.644 C 210.700 184.566,210.470 184.588,210.800 184.691 M219.560 188.590 C 220.747 188.877,221.880 189.400,222.077 189.751 C 222.273 190.103,222.832 190.602,223.317 190.861 C 224.145 191.303,224.134 191.247,223.154 189.973 C 222.037 188.521,221.033 188.083,218.800 188.074 C 217.596 188.069,217.703 188.141,219.560 188.590 M228.032 192.273 C 228.599 192.365,229.924 193.151,230.975 194.020 C 232.027 194.889,233.273 195.582,233.744 195.560 C 234.548 195.523,234.543 195.504,233.658 195.256 C 233.140 195.110,232.127 194.394,231.406 193.664 C 230.450 192.694,229.680 192.306,228.549 192.221 C 227.697 192.157,227.464 192.181,228.032 192.273 M30.924 196.600 C 30.926 197.920,31.001 198.412,31.090 197.693 C 31.179 196.974,31.177 195.894,31.086 195.293 C 30.995 194.692,30.922 195.280,30.924 196.600 M235.400 196.000 C 235.840 196.189,236.599 196.356,237.086 196.372 C 237.573 196.387,238.563 196.907,239.286 197.526 C 240.822 198.843,243.207 200.013,244.260 199.968 C 244.811 199.945,244.847 199.885,244.400 199.732 C 242.567 199.107,240.408 197.943,240.118 197.425 C 239.738 196.746,236.723 195.586,235.450 195.628 C 234.620 195.656,234.619 195.664,235.400 196.000 M246.785 200.668 C 247.546 201.000,248.685 201.705,249.315 202.236 C 250.878 203.551,251.416 203.456,250.082 202.101 C 248.731 200.730,247.363 199.990,246.254 200.033 C 245.589 200.058,245.707 200.199,246.785 200.668 M31.253 205.674 C 31.188 210.425,32.233 217.036,33.258 218.354 C 33.666 218.879,34.000 219.584,34.000 219.921 C 34.000 220.258,34.098 220.436,34.217 220.316 C 34.336 220.197,33.888 218.142,33.220 215.750 C 32.441 212.961,31.992 210.395,31.968 208.600 C 31.899 203.498,31.316 201.111,31.253 205.674 M252.000 203.582 C 252.330 203.805,252.945 203.991,253.367 203.994 C 254.390 204.002,254.071 203.773,252.600 203.444 C 251.724 203.248,251.562 203.285,252.000 203.582 M255.696 204.286 C 256.298 204.377,257.053 204.826,257.374 205.284 C 258.098 206.318,260.000 207.597,260.800 207.588 C 261.130 207.585,260.807 207.290,260.083 206.933 C 259.359 206.576,258.567 205.905,258.323 205.442 C 257.714 204.285,257.199 204.003,255.800 204.066 C 254.602 204.120,254.602 204.120,255.696 204.286 M263.983 208.238 C 264.964 208.546,265.917 209.066,266.101 209.394 C 266.284 209.722,266.809 210.191,267.266 210.435 C 268.092 210.877,268.093 210.873,267.349 209.873 C 266.473 208.695,264.352 207.583,263.086 207.640 C 262.529 207.664,262.862 207.887,263.983 208.238 M269.000 211.213 C 269.440 211.410,270.574 211.767,271.521 212.007 C 272.468 212.246,273.555 212.748,273.938 213.121 C 275.678 214.817,276.205 215.052,275.265 213.711 C 274.557 212.702,273.772 212.247,271.638 211.611 C 268.818 210.771,267.607 210.588,269.000 211.213 M277.806 215.648 C 278.683 216.115,279.536 216.730,279.701 217.015 C 279.867 217.300,280.947 218.221,282.101 219.062 C 284.220 220.604,288.324 224.651,290.318 227.165 C 291.198 228.275,294.035 231.680,294.650 232.367 C 294.733 232.458,294.800 232.366,294.800 232.162 C 294.800 231.451,288.701 224.202,287.290 223.236 C 286.837 222.925,286.238 222.244,285.958 221.722 C 285.679 221.200,284.809 220.384,284.025 219.908 C 283.241 219.432,281.848 218.269,280.928 217.322 C 279.380 215.729,277.816 214.800,276.680 214.800 C 276.422 214.800,276.929 215.182,277.806 215.648 M34.447 223.233 C 34.473 224.645,34.642 226.340,34.821 227.000 C 35.021 227.733,35.069 226.800,34.944 224.603 C 34.706 220.406,34.379 219.503,34.447 223.233 M35.421 235.800 C 35.568 242.369,36.077 245.404,37.228 246.580 C 37.433 246.789,37.613 247.419,37.628 247.980 C 37.644 248.541,37.823 249.360,38.027 249.800 C 38.642 251.127,38.200 247.711,37.432 245.200 C 36.161 241.047,35.949 239.788,35.609 234.400 L 35.269 229.000 35.421 235.800 M295.200 234.184 C 295.200 234.363,295.662 234.936,296.226 235.459 C 297.167 236.331,297.996 238.238,298.551 240.808 C 298.671 241.363,299.361 242.704,300.085 243.789 C 300.896 245.006,301.573 246.688,301.851 248.181 C 302.273 250.445,302.305 250.495,302.351 248.960 C 302.414 246.860,301.746 244.875,300.537 243.569 C 300.012 243.002,299.247 241.363,298.836 239.926 C 297.921 236.727,295.200 232.430,295.200 234.184 M38.509 252.400 C 38.509 253.390,38.587 253.795,38.682 253.300 C 38.778 252.805,38.778 251.995,38.682 251.500 C 38.587 251.005,38.509 251.410,38.509 252.400 M302.501 253.000 C 302.505 253.880,302.587 254.193,302.683 253.695 C 302.779 253.198,302.775 252.478,302.675 252.095 C 302.575 251.713,302.496 252.120,302.501 253.000 M302.985 256.200 C 303.094 257.080,303.359 258.610,303.574 259.600 C 304.153 262.265,304.068 267.865,303.408 270.600 C 302.829 272.998,302.621 275.112,303.002 274.732 C 303.112 274.621,303.399 273.466,303.638 272.165 C 303.878 270.864,304.247 269.590,304.458 269.334 C 305.105 268.548,304.914 260.711,304.215 259.370 C 303.879 258.726,303.591 257.750,303.574 257.200 C 303.558 256.650,303.374 255.840,303.166 255.400 C 302.883 254.801,302.837 255.003,302.985 256.200 M38.919 264.800 C 38.919 273.760,38.937 273.980,39.298 269.500 C 39.536 266.540,39.536 263.060,39.298 260.100 C 38.937 255.620,38.919 255.840,38.919 264.800 M38.332 278.100 C 38.219 280.192,37.873 281.632,37.091 283.270 C 35.730 286.116,35.200 289.713,35.274 295.600 L 35.332 300.200 35.633 294.800 C 35.942 289.242,36.115 288.300,37.577 284.200 C 38.357 282.014,39.207 275.200,38.700 275.200 C 38.583 275.200,38.417 276.505,38.332 278.100 M302.501 276.600 C 302.505 277.480,302.587 277.793,302.683 277.295 C 302.779 276.798,302.775 276.078,302.675 275.695 C 302.575 275.313,302.496 275.720,302.501 276.600 M301.841 281.200 C 301.527 283.288,300.539 285.600,299.960 285.600 C 299.814 285.600,299.597 285.967,299.480 286.415 C 299.298 287.110,299.429 287.066,300.372 286.115 C 301.594 284.882,302.547 281.973,302.319 280.168 C 302.206 279.273,302.095 279.515,301.841 281.200 M298.692 287.842 C 298.531 288.002,298.411 288.598,298.425 289.167 L 298.451 290.200 298.837 289.234 C 299.253 288.194,299.167 287.367,298.692 287.842 M297.579 291.873 C 297.303 292.713,296.730 293.646,296.305 293.947 C 295.879 294.247,295.178 295.318,294.746 296.327 C 294.314 297.335,293.204 298.986,292.280 299.997 C 291.356 301.007,290.076 302.554,289.435 303.435 C 288.794 304.316,287.672 305.479,286.943 306.018 C 286.214 306.558,285.523 307.276,285.409 307.613 C 285.295 307.951,284.673 308.539,284.027 308.920 C 283.382 309.302,282.076 310.343,281.127 311.234 C 280.177 312.125,278.680 313.198,277.800 313.618 C 276.920 314.038,276.443 314.386,276.740 314.391 C 277.791 314.408,279.820 313.180,281.352 311.601 C 282.205 310.720,283.049 310.000,283.227 310.000 C 283.634 310.000,289.195 304.577,290.000 303.394 C 290.330 302.909,291.535 301.477,292.678 300.211 C 293.821 298.945,294.870 297.392,295.009 296.760 C 295.148 296.127,295.788 295.113,296.432 294.505 C 297.547 293.453,298.705 290.972,298.280 290.546 C 298.170 290.436,297.854 291.033,297.579 291.873 M34.526 305.947 C 34.174 309.020,33.851 310.315,33.275 310.947 C 32.233 312.092,31.514 316.587,31.380 322.800 C 31.301 326.461,31.360 327.264,31.601 325.800 C 31.782 324.700,31.950 322.540,31.974 321.000 C 32.017 318.309,32.541 315.844,34.383 309.656 C 34.960 307.718,35.199 305.977,35.119 304.293 C 35.003 301.860,34.989 301.900,34.526 305.947 M274.344 315.800 C 273.618 316.570,272.674 317.200,272.245 317.200 C 271.817 317.200,271.578 317.312,271.715 317.448 C 272.246 317.979,273.852 317.159,274.917 315.812 C 276.349 314.002,276.046 313.996,274.344 315.800 M269.600 318.000 C 269.067 318.345,269.067 318.388,269.600 318.388 C 269.930 318.388,270.470 318.213,270.800 318.000 C 271.333 317.655,271.333 317.612,270.800 317.612 C 270.470 317.612,269.930 317.787,269.600 318.000 M266.677 319.586 C 265.101 320.970,263.651 321.588,261.874 321.632 C 261.173 321.649,260.836 321.758,261.125 321.873 C 262.199 322.303,265.307 321.529,266.235 320.601 C 266.749 320.087,267.577 319.381,268.074 319.033 C 268.571 318.685,268.764 318.400,268.503 318.400 C 268.242 318.400,267.420 318.934,266.677 319.586 M258.222 323.458 C 257.055 324.660,256.452 324.951,254.794 325.110 C 253.688 325.216,252.684 325.464,252.562 325.661 C 252.298 326.089,255.331 325.712,256.887 325.125 C 257.484 324.899,258.082 324.373,258.214 323.957 C 258.346 323.541,258.587 323.200,258.751 323.200 C 259.268 323.200,260.622 322.026,260.119 322.013 C 259.855 322.006,259.001 322.656,258.222 323.458 M249.514 327.127 C 248.283 328.183,246.882 328.876,245.000 329.361 C 244.560 329.474,245.100 329.475,246.200 329.363 C 247.666 329.214,248.441 328.891,249.102 328.155 C 249.598 327.602,250.498 326.893,251.102 326.578 C 251.836 326.195,251.972 326.004,251.514 326.002 C 251.137 326.001,250.237 326.507,249.514 327.127 M241.511 330.289 C 240.692 330.625,239.922 331.215,239.800 331.601 C 239.588 332.269,236.021 333.556,234.174 333.632 C 233.748 333.649,233.621 333.753,233.891 333.862 C 234.991 334.307,238.956 333.106,240.074 331.987 C 240.693 331.369,241.829 330.654,242.600 330.400 C 244.001 329.938,244.441 329.566,243.500 329.639 C 243.225 329.660,242.330 329.953,241.511 330.289 M30.924 332.600 C 30.926 333.920,31.001 334.412,31.090 333.693 C 31.179 332.974,31.177 331.894,31.086 331.293 C 30.995 330.692,30.922 331.280,30.924 332.600 M231.046 335.384 C 229.952 336.358,228.945 336.846,227.646 337.033 C 225.989 337.272,224.002 337.978,225.000 337.974 C 227.262 337.963,230.520 336.760,231.828 335.452 C 233.675 333.605,233.101 333.555,231.046 335.384 M30.288 336.533 C 29.810 337.749,29.924 338.773,30.439 337.887 C 30.667 337.496,30.791 336.866,30.715 336.487 C 30.588 335.860,30.551 335.864,30.288 336.533 M222.522 339.042 C 221.949 339.615,220.832 340.322,220.040 340.613 C 218.782 341.076,218.728 341.147,219.607 341.172 C 220.223 341.189,221.368 340.577,222.551 339.600 C 223.616 338.720,224.279 338.000,224.025 338.000 C 223.771 338.000,223.095 338.469,222.522 339.042 M28.876 341.687 C 28.305 343.444,27.893 345.847,27.799 347.967 C 27.654 351.241,27.662 351.280,27.967 348.800 C 28.143 347.370,28.682 345.226,29.164 344.035 C 29.678 342.762,29.990 341.245,29.920 340.355 C 29.804 338.886,29.772 338.927,28.876 341.687 M214.601 342.124 C 213.018 343.068,211.177 344.800,211.757 344.800 C 212.079 344.800,212.670 344.395,213.071 343.900 C 213.472 343.405,214.430 342.697,215.200 342.326 C 215.970 341.955,216.330 341.650,216.000 341.649 C 215.670 341.648,215.041 341.861,214.601 342.124 M208.000 345.427 L 206.600 345.993 208.000 345.745 C 208.770 345.608,209.760 345.351,210.200 345.173 L 211.000 344.851 210.200 344.856 C 209.760 344.859,208.770 345.116,208.000 345.427 M204.749 346.665 C 204.447 347.030,203.660 347.660,203.000 348.063 C 202.017 348.664,201.945 348.797,202.600 348.798 C 203.040 348.799,204.108 348.170,204.973 347.400 C 205.941 346.538,206.306 346.000,205.922 346.000 C 205.579 346.000,205.051 346.299,204.749 346.665 M197.800 349.600 C 197.485 350.109,198.412 350.109,199.200 349.600 C 199.688 349.285,199.636 349.211,198.924 349.206 C 198.442 349.203,197.936 349.380,197.800 349.600 M195.405 350.959 C 194.877 351.487,193.670 352.192,192.723 352.528 C 191.775 352.863,191.321 353.151,191.713 353.168 C 192.857 353.219,195.238 352.076,196.238 350.996 C 197.421 349.720,196.677 349.686,195.405 350.959 M27.068 359.700 C 26.936 363.495,26.961 368.760,27.124 371.400 C 27.361 375.246,27.426 373.874,27.454 364.500 C 27.473 358.065,27.448 352.800,27.398 352.800 C 27.348 352.800,27.199 355.905,27.068 359.700 M187.267 355.000 C 186.534 355.743,185.364 356.474,184.667 356.624 C 182.364 357.119,177.387 360.800,179.020 360.800 C 179.316 360.800,180.026 360.188,180.597 359.439 C 181.372 358.423,182.314 357.851,184.318 357.181 C 186.212 356.547,187.335 355.889,188.139 354.942 C 189.613 353.206,188.996 353.247,187.267 355.000 M175.702 362.500 C 174.644 363.435,173.063 364.560,172.189 365.000 C 171.315 365.440,170.338 366.160,170.017 366.600 C 169.155 367.785,166.835 370.000,166.457 370.000 C 166.276 370.000,165.926 370.443,165.679 370.985 C 165.433 371.527,164.548 372.402,163.713 372.928 C 162.879 373.455,161.946 374.353,161.641 374.924 C 161.335 375.495,160.571 376.141,159.943 376.360 C 158.742 376.779,158.434 377.200,159.328 377.200 C 160.009 377.200,162.400 375.071,162.400 374.464 C 162.400 374.209,162.619 374.000,162.887 374.000 C 163.154 374.000,165.218 372.115,167.472 369.811 C 169.726 367.508,172.027 365.508,172.585 365.368 C 173.143 365.228,173.600 364.953,173.600 364.757 C 173.600 364.560,173.825 364.397,174.100 364.393 C 174.375 364.390,175.379 363.580,176.332 362.593 C 178.518 360.330,178.211 360.284,175.702 362.500 M157.314 378.300 C 156.481 379.603,156.034 380.050,154.983 380.638 C 154.552 380.878,153.806 381.654,153.324 382.361 C 152.842 383.069,151.852 384.046,151.124 384.534 C 150.396 385.021,149.622 385.820,149.405 386.310 C 149.188 386.799,148.873 387.200,148.705 387.200 C 148.537 387.200,148.400 387.416,148.400 387.680 C 148.400 388.317,149.128 387.597,149.754 386.342 C 150.008 385.832,150.616 385.216,151.105 384.972 C 152.330 384.362,153.600 383.168,153.600 382.627 C 153.600 382.072,154.860 380.963,155.857 380.641 C 156.266 380.509,157.010 379.681,157.512 378.800 C 158.542 376.993,158.393 376.615,157.314 378.300 M27.803 379.577 C 27.925 381.075,28.239 382.010,28.809 382.577 C 29.264 383.030,29.893 383.760,30.206 384.200 C 31.353 385.813,30.760 384.077,29.529 382.218 C 28.830 381.162,28.115 379.647,27.941 378.849 C 27.689 377.693,27.661 377.841,27.803 379.577 M31.242 388.313 C 31.180 389.656,32.255 391.971,33.082 392.276 C 33.477 392.422,33.932 392.735,34.094 392.971 C 34.293 393.261,34.390 393.241,34.394 392.909 C 34.397 392.639,33.956 392.127,33.413 391.771 C 32.825 391.386,32.194 390.371,31.854 389.262 C 31.490 388.075,31.268 387.731,31.242 388.313 M144.150 390.980 C 143.682 391.431,142.872 392.181,142.350 392.646 C 141.827 393.111,140.927 394.011,140.349 394.646 C 139.771 395.281,138.871 396.136,138.349 396.546 C 137.218 397.435,137.707 397.283,139.490 396.190 C 140.199 395.756,141.091 394.824,141.470 394.120 C 141.850 393.416,142.750 392.522,143.470 392.134 C 144.191 391.746,144.879 391.172,144.999 390.857 C 145.319 390.025,145.108 390.056,144.150 390.980 M34.406 393.900 C 34.424 394.777,35.188 395.359,35.194 394.500 C 35.197 394.005,35.020 393.600,34.800 393.600 C 34.580 393.600,34.403 393.735,34.406 393.900 M35.232 396.011 C 35.192 396.782,36.266 398.333,37.647 399.499 C 38.233 399.993,38.985 401.073,39.318 401.899 C 39.715 402.881,40.419 403.662,41.354 404.158 C 42.140 404.576,42.901 405.287,43.044 405.740 C 43.353 406.711,44.346 407.787,44.652 407.481 C 44.770 407.363,44.492 406.892,44.033 406.433 C 43.575 405.975,43.200 405.435,43.200 405.233 C 43.200 405.031,42.584 404.484,41.830 404.019 C 41.077 403.553,39.920 402.234,39.259 401.086 C 38.598 399.939,37.533 398.455,36.892 397.789 C 36.251 397.123,35.622 396.313,35.495 395.989 C 35.296 395.483,35.259 395.486,35.232 396.011 M137.200 397.942 C 137.200 398.204,136.348 398.958,135.306 399.619 C 134.264 400.279,131.765 402.390,129.752 404.310 C 124.615 409.209,122.139 411.323,120.883 411.882 C 119.761 412.381,120.479 412.553,121.676 412.072 C 122.530 411.729,125.843 408.784,130.338 404.373 C 132.259 402.488,134.580 400.525,135.497 400.010 C 137.070 399.125,137.876 398.143,137.409 397.676 C 137.294 397.561,137.200 397.681,137.200 397.942 M45.913 408.224 C 46.403 408.568,47.055 409.333,47.361 409.924 C 47.667 410.516,48.859 411.508,50.009 412.128 C 51.159 412.749,52.543 413.784,53.085 414.428 C 53.628 415.073,54.321 415.600,54.627 415.600 C 55.397 415.600,52.136 412.744,50.271 411.786 C 49.430 411.354,48.113 410.235,47.344 409.300 C 46.575 408.365,45.738 407.600,45.484 407.600 C 45.230 407.600,45.423 407.881,45.913 408.224 M118.173 413.800 C 117.586 414.570,116.937 415.200,116.731 415.200 C 115.913 415.200,112.558 416.959,111.875 417.745 C 111.476 418.205,110.666 418.795,110.075 419.058 L 109.000 419.535 110.000 419.555 C 111.088 419.576,111.968 418.999,112.612 417.841 C 112.839 417.433,114.102 416.658,115.419 416.117 C 117.108 415.425,118.079 414.732,118.711 413.767 C 119.878 411.987,119.540 412.007,118.173 413.800 M57.123 416.273 C 58.255 416.673,59.147 417.347,59.723 418.236 C 60.485 419.412,60.810 419.587,62.200 419.568 L 63.800 419.546 62.059 419.003 C 61.101 418.704,60.055 418.085,59.734 417.628 C 59.044 416.642,57.134 415.587,56.120 415.632 C 55.724 415.649,56.175 415.937,57.123 416.273 M68.959 420.985 C 70.037 421.512,71.056 422.168,71.225 422.441 C 72.708 424.840,100.311 424.327,102.983 421.851 C 104.466 420.477,103.630 420.505,101.519 421.900 L 99.855 423.000 86.369 423.000 C 74.408 423.000,72.799 422.925,72.142 422.341 C 71.006 421.331,68.457 419.999,67.688 420.013 C 67.310 420.019,67.882 420.457,68.959 420.985 " stroke="none" fill="#b4a44c" fill-rule="evenodd"></path><path id="path4" d="M75.498 106.370 C 73.750 106.560,72.479 106.936,71.898 107.432 C 70.315 108.786,69.271 109.193,66.304 109.613 C 62.128 110.204,60.479 110.721,60.226 111.517 C 59.969 112.327,57.972 113.436,56.103 113.806 C 55.390 113.947,54.247 114.655,53.563 115.380 C 52.879 116.105,51.483 117.115,50.460 117.625 C 48.390 118.656,47.875 119.082,47.497 120.083 C 47.355 120.459,46.524 121.217,45.650 121.768 C 44.777 122.319,43.765 123.275,43.401 123.891 C 43.036 124.508,42.149 125.399,41.428 125.872 C 40.707 126.344,39.754 127.421,39.310 128.265 C 38.866 129.109,37.875 130.462,37.107 131.270 C 36.298 132.121,35.526 133.471,35.273 134.475 C 34.855 136.137,33.743 137.752,32.801 138.066 C 32.369 138.210,31.978 139.486,31.218 143.232 C 31.014 144.240,30.185 146.175,29.377 147.532 L 27.907 149.999 27.567 157.500 C 27.050 168.881,27.737 181.799,29.020 184.848 C 29.559 186.128,30.000 187.890,30.000 188.762 C 30.000 189.634,30.194 190.855,30.431 191.474 C 30.668 192.093,31.039 195.210,31.254 198.400 C 32.120 211.219,32.292 212.630,33.522 217.000 C 34.886 221.843,35.061 223.184,35.406 231.400 C 35.656 237.338,36.145 241.181,36.986 243.800 C 37.268 244.680,37.696 246.030,37.937 246.800 C 40.116 253.770,39.787 277.522,37.412 284.600 C 35.983 288.862,35.673 291.139,35.398 299.400 C 35.201 305.324,34.964 307.617,34.325 309.800 C 33.874 311.340,33.248 313.500,32.935 314.600 C 32.371 316.582,32.034 319.894,31.233 331.310 C 31.004 334.560,30.634 337.563,30.409 337.983 C 30.184 338.404,30.000 339.458,30.000 340.326 C 30.000 341.194,29.569 343.051,29.042 344.452 C 26.528 351.139,26.807 377.976,29.433 382.051 C 30.182 383.214,30.904 384.803,31.038 385.582 C 31.618 388.954,32.462 391.148,33.419 391.775 C 33.958 392.129,34.400 392.684,34.400 393.009 C 34.400 393.334,34.556 393.600,34.748 393.600 C 34.939 393.600,35.197 394.227,35.321 394.994 C 35.450 395.783,36.092 396.954,36.803 397.694 C 37.493 398.412,38.598 399.939,39.259 401.086 C 39.920 402.234,41.077 403.553,41.830 404.019 C 42.584 404.484,43.200 405.021,43.200 405.212 C 43.200 405.724,45.022 407.600,45.519 407.600 C 45.754 407.600,46.575 408.365,47.344 409.300 C 48.113 410.235,49.430 411.354,50.271 411.786 C 51.112 412.218,52.561 413.253,53.491 414.086 C 54.421 414.919,55.555 415.600,56.011 415.600 C 57.129 415.600,59.027 416.618,59.700 417.579 C 60.427 418.616,61.893 419.138,65.492 419.638 C 68.349 420.035,70.560 420.934,72.142 422.341 C 72.799 422.925,74.408 423.000,86.369 423.000 L 99.855 423.000 101.519 421.900 C 102.434 421.295,103.446 420.800,103.768 420.800 C 104.090 420.800,104.451 420.641,104.571 420.446 C 104.692 420.252,105.647 419.974,106.695 419.828 C 109.269 419.472,110.842 418.844,111.800 417.790 C 112.561 416.953,115.912 415.200,116.751 415.200 C 116.968 415.200,117.543 414.642,118.029 413.960 C 118.514 413.278,119.597 412.423,120.435 412.060 C 122.116 411.332,124.255 409.553,129.752 404.310 C 131.765 402.390,134.247 400.290,135.269 399.642 C 136.290 398.995,137.232 398.130,137.361 397.722 C 137.491 397.313,137.986 396.713,138.461 396.389 C 139.572 395.631,141.600 393.567,141.600 393.194 C 141.600 393.036,142.306 392.439,143.168 391.869 C 144.031 391.298,144.844 390.490,144.977 390.074 C 145.109 389.658,145.885 388.976,146.702 388.558 C 148.353 387.716,148.796 387.331,149.438 386.183 C 149.678 385.752,150.454 385.006,151.161 384.524 C 151.869 384.042,152.842 383.069,153.324 382.361 C 153.806 381.654,154.552 380.878,154.983 380.638 C 156.029 380.053,156.481 379.602,157.291 378.335 C 157.666 377.749,158.683 376.956,159.552 376.573 C 160.420 376.190,161.371 375.429,161.663 374.881 C 161.956 374.334,162.879 373.455,163.713 372.928 C 164.548 372.402,165.433 371.527,165.679 370.985 C 165.926 370.443,166.276 370.000,166.457 370.000 C 166.835 370.000,169.155 367.785,170.017 366.600 C 170.338 366.160,171.320 365.440,172.200 365.000 C 173.080 364.560,174.520 363.549,175.400 362.754 C 176.280 361.958,177.569 361.017,178.265 360.662 C 178.960 360.306,179.867 359.587,180.280 359.062 C 181.144 357.963,182.849 357.015,184.663 356.625 C 185.358 356.475,186.533 355.763,187.276 355.042 C 188.200 354.144,189.567 353.446,191.613 352.826 C 193.256 352.329,194.744 351.669,194.920 351.361 C 195.292 350.709,198.258 349.201,199.175 349.198 C 200.581 349.193,202.853 348.304,204.064 347.285 C 205.287 346.256,209.010 344.819,210.486 344.806 C 210.863 344.803,211.763 344.305,212.486 343.700 C 214.228 342.242,215.148 341.758,216.813 341.423 C 219.521 340.878,221.933 339.951,222.157 339.369 C 222.451 338.601,225.305 337.392,227.646 337.042 C 228.915 336.853,229.958 336.352,230.984 335.439 C 232.119 334.429,233.307 333.906,235.938 333.257 C 237.842 332.787,239.461 332.218,239.535 331.994 C 239.831 331.107,240.825 330.504,243.062 329.854 C 247.601 328.534,248.213 328.277,249.514 327.144 C 250.237 326.515,251.171 326.000,251.590 326.000 C 252.010 326.000,252.450 325.843,252.568 325.652 C 252.686 325.460,253.688 325.216,254.794 325.110 C 256.446 324.951,257.056 324.659,258.205 323.476 C 259.129 322.525,260.113 321.952,261.102 321.791 C 264.450 321.244,264.914 321.076,266.209 319.939 C 267.453 318.846,271.249 317.200,272.524 317.200 C 272.823 317.200,273.553 316.655,274.146 315.989 C 274.740 315.324,276.164 314.346,277.313 313.817 C 278.461 313.289,280.177 312.127,281.127 311.235 C 282.076 310.343,283.382 309.302,284.027 308.920 C 284.673 308.539,285.295 307.951,285.409 307.613 C 285.523 307.276,286.214 306.558,286.943 306.018 C 287.672 305.479,288.794 304.316,289.435 303.435 C 290.076 302.554,291.356 301.007,292.280 299.997 C 293.204 298.986,294.314 297.335,294.746 296.327 C 295.178 295.318,295.870 294.247,296.284 293.947 C 297.049 293.391,298.400 290.309,298.400 289.119 C 298.400 288.334,299.524 286.161,300.515 285.031 C 300.909 284.583,301.307 283.852,301.400 283.408 C 301.882 281.100,302.372 277.918,302.601 275.600 C 302.743 274.170,303.113 271.920,303.424 270.600 C 304.069 267.856,304.148 262.253,303.579 259.600 C 303.148 257.588,302.698 254.729,301.977 249.411 C 301.575 246.442,301.257 245.482,300.140 243.858 C 299.396 242.777,298.686 241.422,298.561 240.847 C 297.996 238.247,297.174 236.338,296.254 235.485 C 295.705 234.976,295.137 234.090,294.993 233.516 C 294.849 232.941,293.982 231.583,293.066 230.497 C 292.150 229.410,290.916 227.909,290.323 227.161 C 288.337 224.650,284.223 220.615,281.901 218.901 C 280.636 217.966,279.600 217.050,279.600 216.866 C 279.600 216.681,278.653 216.066,277.496 215.499 C 276.338 214.933,274.896 214.010,274.290 213.448 C 273.684 212.887,272.426 212.235,271.494 211.999 C 268.937 211.351,266.950 210.406,266.105 209.435 C 265.638 208.897,264.437 208.366,262.974 208.050 C 259.987 207.404,258.181 206.536,257.424 205.381 C 256.992 204.721,256.272 204.402,254.737 204.191 C 252.440 203.875,249.454 202.735,249.000 202.000 C 248.626 201.394,245.368 200.000,244.327 200.000 C 243.198 200.000,240.795 198.849,239.557 197.715 C 238.920 197.131,237.327 196.470,235.462 196.015 C 233.223 195.469,231.978 194.901,230.791 193.885 C 229.596 192.862,228.641 192.429,227.142 192.230 C 225.016 191.948,223.588 191.249,222.131 189.779 C 221.563 189.206,220.317 188.727,218.531 188.397 C 215.516 187.838,213.386 186.912,212.264 185.672 C 211.860 185.224,210.780 184.735,209.864 184.585 C 207.952 184.270,204.000 182.517,204.000 181.982 C 204.000 181.785,202.695 181.245,201.100 180.783 C 197.493 179.737,195.200 178.785,195.200 178.333 C 195.200 177.910,193.335 177.099,190.400 176.245 C 188.964 175.828,187.739 175.129,186.874 174.233 C 185.980 173.309,185.021 172.772,183.932 172.588 C 182.839 172.404,181.839 171.843,180.846 170.858 C 180.037 170.056,178.841 169.134,178.188 168.808 C 177.535 168.483,176.370 167.562,175.600 166.761 C 174.830 165.961,173.795 165.180,173.300 165.026 C 172.805 164.872,172.400 164.598,172.400 164.416 C 172.400 164.235,171.950 163.974,171.400 163.836 C 170.850 163.698,170.400 163.417,170.400 163.212 C 170.400 162.673,167.632 160.064,166.771 159.791 C 166.369 159.663,165.932 159.216,165.799 158.797 C 165.571 158.078,164.351 156.914,162.485 155.633 C 162.030 155.321,161.571 154.733,161.465 154.327 C 161.359 153.921,160.671 153.336,159.936 153.026 C 158.495 152.418,156.800 150.998,156.800 150.399 C 156.800 150.195,156.153 149.589,155.362 149.052 C 154.572 148.515,153.485 147.428,152.948 146.638 C 152.411 145.847,151.798 145.200,151.586 145.200 C 151.100 145.200,150.007 144.106,149.111 142.724 C 148.732 142.139,148.012 141.533,147.511 141.377 C 146.599 141.093,136.800 131.512,136.800 130.905 C 136.800 130.727,136.125 130.226,135.300 129.791 C 134.476 129.356,132.350 127.560,130.578 125.800 C 128.805 124.040,126.427 121.893,125.293 121.030 C 124.159 120.166,123.143 119.229,123.035 118.946 C 122.926 118.664,121.922 117.969,120.804 117.402 C 119.685 116.835,118.388 115.932,117.921 115.396 C 117.455 114.859,116.427 114.208,115.637 113.949 C 113.943 113.393,111.340 111.817,111.140 111.226 C 111.063 110.998,109.560 110.441,107.800 109.988 C 104.275 109.081,102.416 108.320,100.600 107.044 C 99.303 106.132,81.962 105.667,75.498 106.370 M97.625 108.299 C 99.878 109.410,102.768 110.265,105.400 110.600 C 107.728 110.897,109.185 111.512,109.932 112.513 C 110.494 113.266,112.802 114.420,115.300 115.196 C 116.125 115.452,116.800 115.828,116.800 116.031 C 116.800 116.670,118.337 117.969,119.412 118.239 C 119.979 118.381,120.929 119.114,121.522 119.868 C 122.115 120.621,123.202 121.614,123.937 122.075 C 124.673 122.535,126.842 124.461,128.758 126.356 C 130.673 128.250,132.954 130.146,133.826 130.568 C 134.698 130.990,135.898 132.021,136.494 132.857 C 137.090 133.694,137.988 134.483,138.489 134.610 C 139.051 134.752,139.644 135.414,140.036 136.339 C 140.430 137.268,141.148 138.069,141.926 138.445 C 142.616 138.780,143.593 139.665,144.098 140.414 C 144.627 141.200,145.542 141.925,146.264 142.133 C 146.953 142.330,147.757 142.949,148.057 143.513 C 148.356 144.075,149.284 145.032,150.121 145.639 C 150.957 146.246,152.037 147.324,152.521 148.034 C 153.004 148.744,153.752 149.522,154.183 149.762 C 155.267 150.368,155.743 150.831,156.550 152.066 C 156.933 152.652,157.841 153.413,158.566 153.757 C 159.292 154.101,160.316 155.016,160.843 155.789 C 161.369 156.562,161.997 157.196,162.239 157.197 C 162.914 157.201,164.255 158.503,164.551 159.442 C 164.697 159.904,165.455 160.624,166.235 161.042 C 167.014 161.459,168.019 162.391,168.467 163.112 C 168.914 163.834,169.937 164.761,170.740 165.172 C 171.543 165.582,172.848 166.549,173.641 167.321 C 174.433 168.092,175.854 169.117,176.798 169.599 C 177.742 170.081,178.941 170.982,179.463 171.602 C 179.984 172.221,181.225 173.006,182.219 173.345 C 183.213 173.683,184.770 174.597,185.678 175.374 C 186.587 176.152,187.976 176.909,188.765 177.057 C 190.755 177.430,192.559 178.228,193.226 179.032 C 193.908 179.853,196.936 181.197,198.133 181.209 C 199.281 181.220,201.983 182.495,203.066 183.536 C 203.542 183.993,204.442 184.480,205.066 184.616 C 205.690 184.753,206.650 185.017,207.200 185.202 C 207.750 185.388,208.875 185.651,209.700 185.788 C 210.640 185.944,211.200 186.256,211.200 186.624 C 211.200 187.485,213.502 188.741,215.587 189.017 C 217.894 189.323,219.565 189.965,220.508 190.908 C 221.441 191.841,224.138 193.000,226.102 193.312 C 226.967 193.449,228.343 194.155,229.342 194.974 C 230.433 195.868,231.810 196.549,233.040 196.802 C 234.118 197.025,235.540 197.324,236.200 197.466 C 236.860 197.609,237.637 198.060,237.926 198.468 C 238.685 199.538,241.116 200.678,243.355 201.014 C 244.634 201.206,245.741 201.700,246.617 202.469 C 247.803 203.510,250.790 204.741,253.608 205.351 C 254.162 205.471,254.989 205.917,255.446 206.342 C 256.637 207.452,258.388 208.288,260.214 208.618 C 262.100 208.960,262.933 209.355,264.800 210.797 C 265.570 211.391,267.460 212.203,269.000 212.601 C 271.008 213.119,272.161 213.682,273.078 214.592 C 273.780 215.289,275.081 216.077,275.967 216.343 C 276.985 216.648,277.969 217.337,278.637 218.213 C 279.219 218.976,279.861 219.600,280.064 219.600 C 280.783 219.600,289.600 228.089,289.600 228.781 C 289.600 229.276,291.852 231.600,292.332 231.600 C 292.530 231.600,293.009 232.455,293.397 233.500 C 293.786 234.545,294.603 235.940,295.213 236.600 C 296.314 237.790,297.600 240.915,297.600 242.402 C 297.600 243.332,299.024 246.014,299.865 246.669 C 301.947 248.289,302.419 271.540,300.567 281.219 C 300.460 281.780,299.966 282.680,299.471 283.219 C 298.467 284.312,297.778 285.899,297.395 288.000 C 297.062 289.832,296.088 291.945,295.102 292.975 C 294.668 293.429,293.983 294.554,293.581 295.475 C 292.767 297.340,291.973 298.259,285.696 304.600 C 279.359 311.002,277.418 312.689,276.036 312.992 C 275.359 313.141,274.200 313.849,273.463 314.565 C 272.247 315.746,268.937 317.200,267.465 317.200 C 267.143 317.200,265.944 317.903,264.800 318.763 C 263.656 319.623,262.063 320.440,261.260 320.579 C 259.114 320.952,257.575 321.608,256.000 322.823 C 255.192 323.446,253.378 324.199,251.712 324.602 C 249.709 325.088,248.361 325.697,247.312 326.591 C 246.450 327.326,245.112 328.001,244.200 328.162 C 241.741 328.595,239.057 329.685,238.473 330.488 C 237.909 331.263,235.523 332.399,234.451 332.402 C 232.891 332.408,230.573 333.366,229.483 334.455 C 228.604 335.335,227.493 335.829,225.119 336.396 C 221.957 337.151,221.523 337.358,219.600 339.029 C 219.050 339.507,217.790 340.017,216.800 340.162 C 214.153 340.551,211.655 341.597,211.391 342.427 C 211.172 343.119,210.155 343.513,205.311 344.782 C 204.382 345.026,203.057 345.741,202.367 346.371 C 201.677 347.002,200.586 347.623,199.943 347.751 C 196.826 348.375,194.397 349.332,193.186 350.413 C 191.999 351.472,189.844 352.392,188.532 352.398 C 187.742 352.402,185.609 353.765,185.401 354.400 C 185.226 354.937,183.184 355.942,181.000 356.567 C 180.560 356.692,179.840 357.342,179.400 358.010 C 178.960 358.677,178.170 359.334,177.646 359.469 C 177.121 359.604,175.692 360.528,174.470 361.523 C 173.249 362.518,171.567 363.719,170.734 364.193 C 169.901 364.666,168.803 365.671,168.295 366.427 C 167.786 367.182,166.899 368.027,166.322 368.304 C 165.746 368.581,164.916 369.415,164.478 370.157 C 164.041 370.899,163.148 371.822,162.495 372.207 C 161.843 372.593,161.022 373.393,160.672 373.985 C 160.322 374.578,159.353 375.371,158.518 375.748 C 157.683 376.126,156.602 377.043,156.116 377.788 C 155.629 378.532,154.731 379.381,154.119 379.674 C 153.508 379.967,152.782 380.678,152.506 381.252 C 151.966 382.381,151.192 383.129,149.888 383.784 C 149.433 384.013,148.765 384.736,148.404 385.390 C 148.042 386.045,146.918 387.006,145.907 387.527 C 144.832 388.080,143.977 388.831,143.847 389.336 C 143.726 389.811,142.945 390.560,142.113 391.000 C 141.217 391.474,140.368 392.328,140.030 393.095 C 139.716 393.808,139.086 394.506,138.630 394.648 C 137.660 394.948,135.600 397.119,135.600 397.840 C 135.600 398.113,135.043 398.459,134.363 398.608 C 133.552 398.786,131.744 400.211,129.118 402.740 C 126.914 404.863,124.739 406.870,124.284 407.200 C 123.829 407.530,122.897 408.378,122.214 409.085 C 121.531 409.791,120.348 410.643,119.586 410.978 C 117.974 411.686,117.159 412.331,116.596 413.346 C 116.374 413.746,115.114 414.442,113.796 414.894 C 112.478 415.345,110.746 416.299,109.946 417.014 C 108.989 417.871,107.897 418.405,106.746 418.579 C 102.627 419.205,98.124 420.537,97.577 421.291 C 96.424 422.880,79.656 422.744,75.600 421.113 C 72.130 419.719,69.185 418.910,65.803 418.424 C 64.265 418.204,62.825 417.790,62.603 417.506 C 61.900 416.604,59.995 415.555,57.962 414.952 C 56.784 414.602,55.429 413.802,54.585 412.958 C 53.810 412.183,52.564 411.293,51.816 410.981 C 51.069 410.669,49.568 409.510,48.482 408.407 C 47.396 407.303,46.230 406.400,45.893 406.400 C 45.555 406.400,44.934 405.737,44.513 404.926 C 44.069 404.069,43.131 403.131,42.274 402.687 C 41.463 402.266,40.800 401.697,40.800 401.422 C 40.800 400.526,39.478 398.230,38.145 396.811 C 37.428 396.047,36.538 394.607,36.169 393.611 C 35.799 392.615,35.008 391.260,34.411 390.600 C 33.163 389.219,32.566 387.749,32.221 385.200 C 31.947 383.174,30.831 379.505,30.397 379.200 C 28.536 377.895,27.599 354.923,29.280 351.800 C 30.818 348.941,31.844 342.465,32.415 332.000 C 32.872 323.613,33.285 320.647,34.306 318.400 C 35.338 316.127,36.050 310.501,36.407 301.800 C 36.675 295.272,37.073 292.540,37.910 291.489 C 41.093 287.492,41.002 243.963,37.797 237.600 C 36.891 235.802,36.402 232.300,36.233 226.400 C 36.033 219.425,35.170 212.785,34.180 210.600 C 33.240 208.527,32.859 205.696,32.428 197.573 C 31.895 187.539,30.893 181.195,29.274 177.600 C 28.748 176.433,28.641 174.305,28.633 164.797 L 28.623 153.394 29.745 151.397 C 31.074 149.033,31.831 146.868,32.192 144.400 C 32.606 141.577,33.246 139.868,34.215 139.000 C 35.185 138.132,36.400 135.965,36.400 135.103 C 36.400 134.808,37.022 133.907,37.783 133.100 C 39.183 131.616,40.791 128.862,40.810 127.916 C 40.816 127.632,41.519 127.079,42.372 126.686 C 43.362 126.229,44.153 125.485,44.562 124.625 C 44.955 123.795,45.656 123.119,46.386 122.865 C 47.037 122.638,48.071 121.749,48.682 120.891 C 49.391 119.895,50.446 119.064,51.597 118.595 C 53.221 117.933,54.883 116.621,55.259 115.703 C 55.336 115.513,56.623 114.949,58.117 114.449 C 59.657 113.934,61.350 113.036,62.025 112.376 C 63.294 111.135,63.385 111.106,68.000 110.455 C 71.674 109.936,74.821 109.072,76.747 108.051 C 79.088 106.811,94.989 107.000,97.625 108.299 " stroke="none" fill="#b4ac4c" fill-rule="evenodd"></path></g></svg>