<svg xmlns="http://www.w3.org/2000/svg" xmlns:xlink="http://www.w3.org/1999/xlink" viewBox="0 0 30 30" fill="#FDFDFD">
  <path d="M5 4 A 1 1 0 0 0 4 5 A 1 1 0 0 0 5 6 A 1 1 0 0 0 6 5 A 1 1 0 0 0 5 4 z M 9 4 A 1 1 0 0 0 8 5 A 1 1 0 0 0 9 6 A 1 1 0 0 0 10 5 A 1 1 0 0 0 9 4 z M 13 4 A 1 1 0 0 0 12 5 A 1 1 0 0 0 13 6 A 1 1 0 0 0 14 5 A 1 1 0 0 0 13 4 z M 17 4 A 1 1 0 0 0 16 5 A 1 1 0 0 0 17 6 A 1 1 0 0 0 18 5 A 1 1 0 0 0 17 4 z M 21 4 A 1 1 0 0 0 20 5 A 1 1 0 0 0 21 6 A 1 1 0 0 0 22 5 A 1 1 0 0 0 21 4 z M 25 4 A 1 1 0 0 0 24 5 A 1 1 0 0 0 25 6 A 1 1 0 0 0 26 5 A 1 1 0 0 0 25 4 z M 5 8 A 1 1 0 0 0 4 9 A 1 1 0 0 0 5 10 A 1 1 0 0 0 6 9 A 1 1 0 0 0 5 8 z M 25 8 A 1 1 0 0 0 24 9 A 1 1 0 0 0 25 10 A 1 1 0 0 0 26 9 A 1 1 0 0 0 25 8 z M 19.980469 8.9902344 A 1.0001 1.0001 0 0 0 19.869141 9L15 9 A 1.0001 1.0001 0 1 0 15 11L17.585938 11L12.511719 16.074219C12.347332 16.030549 12.178179 16 12 16L6 16C4.895 16 4 16.895 4 18L4 24C4 25.105 4.895 26 6 26L12 26C13.105 26 14 25.105 14 24L14 18C14 17.821821 13.969451 17.652668 13.925781 17.488281L19 12.414062L19 15 A 1.0001 1.0001 0 1 0 21 15L21 10.126953 A 1.0001 1.0001 0 0 0 19.980469 8.9902344 z M 5 12 A 1 1 0 0 0 4 13 A 1 1 0 0 0 5 14 A 1 1 0 0 0 6 13 A 1 1 0 0 0 5 12 z M 25 12 A 1 1 0 0 0 24 13 A 1 1 0 0 0 25 14 A 1 1 0 0 0 26 13 A 1 1 0 0 0 25 12 z M 25 16 A 1 1 0 0 0 24 17 A 1 1 0 0 0 25 18 A 1 1 0 0 0 26 17 A 1 1 0 0 0 25 16 z M 25 20 A 1 1 0 0 0 24 21 A 1 1 0 0 0 25 22 A 1 1 0 0 0 26 21 A 1 1 0 0 0 25 20 z M 17 24 A 1 1 0 0 0 16 25 A 1 1 0 0 0 17 26 A 1 1 0 0 0 18 25 A 1 1 0 0 0 17 24 z M 21 24 A 1 1 0 0 0 20 25 A 1 1 0 0 0 21 26 A 1 1 0 0 0 22 25 A 1 1 0 0 0 21 24 z M 25 24 A 1 1 0 0 0 24 25 A 1 1 0 0 0 25 26 A 1 1 0 0 0 26 25 A 1 1 0 0 0 25 24 z" fill="#FDFDFD" />
</svg>