<svg xmlns="http://www.w3.org/2000/svg" xmlns:xlink="http://www.w3.org/1999/xlink" viewBox="0 0 26 26" fill="#00B7EB">
  <path d="M14.699219 5C18.898438 7.800781 22.699219 12.199219 22.800781 12.398438C23 12.601563 23 12.800781 23 13.101563C23 13.300781 22.898438 13.601563 22.800781 13.800781C22.699219 14 18.800781 18.398438 14.699219 21.199219C14.398438 21.398438 14 21.398438 13.601563 21.300781C13.300781 21.101563 13 20.800781 13 20.398438L13 16.699219C13 16.699219 4.300781 16.199219 3.898438 15.898438C3.398438 15.300781 3 14.101563 3 13C3 11.898438 3.398438 10.800781 3.898438 10.398438C4.300781 10.199219 13 9.5 13 9.5L13 5.800781C13 5.398438 13.199219 5.101563 13.601563 4.898438C13.898438 4.699219 14.300781 4.800781 14.699219 5Z" fill="#00B7EB" />
</svg>