<svg xmlns="http://www.w3.org/2000/svg" xmlns:xlink="http://www.w3.org/1999/xlink" viewBox="0 0 48 48"><path fill="#fafafa" d="M20,23c0,0-3,8-10,8S0,23,0,23s3.58-1.406,9.545-1.406S20,23,20,23z"/><path fill="#009688" d="M10 18A5 5 0 1 0 10 28A5 5 0 1 0 10 18Z"/><path fill="#263238" d="M10 22A2 2 0 1 0 10 26A2 2 0 1 0 10 22Z"/><path fill="#ffa726" d="M20,23c0,0-2.5-7-10-7S0,23,0,23s3.75,1,10,1S20,23,20,23z"/><path fill="#ffa726" d="M10,30c-7,0-10-7-10-7c0,3,3,9,10,9s10-7,10-9C20,23,17,30,10,30z"/><path fill="#fafafa" d="M48,23c0,0-3,8-10,8s-10-8-10-8s3.58-1.406,9.545-1.406S48,23,48,23z"/><path fill="#009688" d="M38 18A5 5 0 1 0 38 28A5 5 0 1 0 38 18Z"/><path fill="#263238" d="M38 22A2 2 0 1 0 38 26A2 2 0 1 0 38 22Z"/><g><path fill="#ffa726" d="M48,23c0,0-2.5-7-10-7s-10,7-10,7s3.75,1,10,1S48,23,48,23z"/><path fill="#ffa726" d="M38,30c-7,0-10-7-10-7c0,3,3,9,10,9s10-7,10-9C48,23,45,30,38,30z"/></g></svg>